%TF.GenerationSoftware,KiCad,Pcbnew,(6.0.2)*%
%TF.CreationDate,2022-04-11T13:25:00+02:00*%
%TF.ProjectId,main,6d61696e-2e6b-4696-9361-645f70636258,v0.02*%
%TF.SameCoordinates,Original*%
%TF.FileFunction,Paste,Top*%
%TF.FilePolarity,Positive*%
%FSLAX46Y46*%
G04 Gerber Fmt 4.6, Leading zero omitted, Abs format (unit mm)*
G04 Created by KiCad (PCBNEW (6.0.2)) date 2022-04-11 13:25:00*
%MOMM*%
%LPD*%
G01*
G04 APERTURE LIST*
G04 Aperture macros list*
%AMRoundRect*
0 Rectangle with rounded corners*
0 $1 Rounding radius*
0 $2 $3 $4 $5 $6 $7 $8 $9 X,Y pos of 4 corners*
0 Add a 4 corners polygon primitive as box body*
4,1,4,$2,$3,$4,$5,$6,$7,$8,$9,$2,$3,0*
0 Add four circle primitives for the rounded corners*
1,1,$1+$1,$2,$3*
1,1,$1+$1,$4,$5*
1,1,$1+$1,$6,$7*
1,1,$1+$1,$8,$9*
0 Add four rect primitives between the rounded corners*
20,1,$1+$1,$2,$3,$4,$5,0*
20,1,$1+$1,$4,$5,$6,$7,0*
20,1,$1+$1,$6,$7,$8,$9,0*
20,1,$1+$1,$8,$9,$2,$3,0*%
%AMFreePoly0*
4,1,9,3.862500,-0.866500,0.737500,-0.866500,0.737500,-0.450000,-0.737500,-0.450000,-0.737500,0.450000,0.737500,0.450000,0.737500,0.866500,3.862500,0.866500,3.862500,-0.866500,3.862500,-0.866500,$1*%
G04 Aperture macros list end*
%ADD10R,1.000000X1.450000*%
%ADD11R,0.940000X0.730000*%
%ADD12R,0.730000X0.940000*%
%ADD13R,0.800000X1.300000*%
%ADD14R,2.100000X3.000000*%
%ADD15R,1.450000X1.000000*%
%ADD16R,0.900000X0.950000*%
%ADD17R,7.340000X6.350000*%
%ADD18RoundRect,0.140000X0.170000X-0.140000X0.170000X0.140000X-0.170000X0.140000X-0.170000X-0.140000X0*%
%ADD19RoundRect,0.150000X0.825000X0.150000X-0.825000X0.150000X-0.825000X-0.150000X0.825000X-0.150000X0*%
%ADD20RoundRect,0.049600X0.260400X-0.605400X0.260400X0.605400X-0.260400X0.605400X-0.260400X-0.605400X0*%
%ADD21R,0.600000X1.200000*%
%ADD22R,0.600000X0.750000*%
%ADD23R,0.970000X1.470000*%
%ADD24RoundRect,0.140000X-0.170000X0.140000X-0.170000X-0.140000X0.170000X-0.140000X0.170000X0.140000X0*%
%ADD25R,1.470000X0.970000*%
%ADD26RoundRect,0.140000X0.140000X0.170000X-0.140000X0.170000X-0.140000X-0.170000X0.140000X-0.170000X0*%
%ADD27R,1.525000X0.700000*%
%ADD28R,2.513000X3.402000*%
%ADD29R,0.650000X1.525000*%
%ADD30R,0.950000X0.900000*%
%ADD31R,1.475000X0.450000*%
%ADD32R,0.400000X1.250000*%
%ADD33R,0.600000X1.350000*%
%ADD34R,1.200000X1.400000*%
%ADD35RoundRect,0.243750X-0.243750X-0.456250X0.243750X-0.456250X0.243750X0.456250X-0.243750X0.456250X0*%
%ADD36R,0.600000X0.450000*%
%ADD37R,0.800000X1.200000*%
%ADD38R,0.450000X0.600000*%
%ADD39R,1.300000X0.900000*%
%ADD40FreePoly0,0.000000*%
%ADD41RoundRect,0.150000X0.150000X-0.587500X0.150000X0.587500X-0.150000X0.587500X-0.150000X-0.587500X0*%
G04 APERTURE END LIST*
D10*
%TO.C,R23*%
X141180000Y-119310000D03*
X143080000Y-119310000D03*
%TD*%
D11*
%TO.C,C5*%
X91150000Y-119000000D03*
X91150000Y-117580000D03*
%TD*%
D12*
%TO.C,C11*%
X152706000Y-75438000D03*
X154126000Y-75438000D03*
%TD*%
D13*
%TO.C,J11*%
X165435000Y-121349500D03*
X164185000Y-121349500D03*
D14*
X167985000Y-118599500D03*
X161635000Y-118599500D03*
%TD*%
D12*
%TO.C,C6*%
X106600000Y-127920000D03*
X105180000Y-127920000D03*
%TD*%
D10*
%TO.C,R7*%
X108070000Y-135890000D03*
X106170000Y-135890000D03*
%TD*%
D15*
%TO.C,R11*%
X93220000Y-119000000D03*
X93220000Y-117100000D03*
%TD*%
D16*
%TO.C,R18*%
X143820000Y-75760000D03*
X142220000Y-75760000D03*
%TD*%
D17*
%TO.C,BT1*%
X93975000Y-104550000D03*
X179975000Y-104550000D03*
%TD*%
D18*
%TO.C,C13*%
X129794000Y-87602000D03*
X129794000Y-86642000D03*
%TD*%
D10*
%TO.C,R6*%
X104290000Y-135860000D03*
X102390000Y-135860000D03*
%TD*%
D19*
%TO.C,U2*%
X125865000Y-80165000D03*
X125865000Y-78895000D03*
X125865000Y-77625000D03*
X125865000Y-76355000D03*
X120915000Y-76355000D03*
X120915000Y-77625000D03*
X120915000Y-78895000D03*
X120915000Y-80165000D03*
%TD*%
D20*
%TO.C,U4*%
X146715000Y-134010000D03*
X147985000Y-134010000D03*
X149255000Y-134010000D03*
X150525000Y-134010000D03*
X151795000Y-134010000D03*
X153065000Y-134010000D03*
X154335000Y-134010000D03*
X155605000Y-134010000D03*
X155605000Y-128510000D03*
X154335000Y-128510000D03*
X153065000Y-128510000D03*
X151795000Y-128510000D03*
X150525000Y-128510000D03*
X149255000Y-128510000D03*
X147985000Y-128510000D03*
X146715000Y-128510000D03*
%TD*%
D21*
%TO.C,Q2*%
X92220000Y-123880000D03*
X94120000Y-123880000D03*
X93170000Y-121380000D03*
%TD*%
D10*
%TO.C,R5*%
X118010000Y-131170000D03*
X116110000Y-131170000D03*
%TD*%
D13*
%TO.C,J9*%
X147865000Y-74549500D03*
X146615000Y-74549500D03*
D14*
X150415000Y-71799500D03*
X144065000Y-71799500D03*
%TD*%
D13*
%TO.C,J10*%
X125260000Y-90660000D03*
X124010000Y-90660000D03*
D14*
X127810000Y-87910000D03*
X121460000Y-87910000D03*
%TD*%
D22*
%TO.C,R15*%
X110370000Y-128360000D03*
X110370000Y-129460000D03*
%TD*%
D23*
%TO.C,C3*%
X124370000Y-133600000D03*
X126030000Y-133600000D03*
%TD*%
D24*
%TO.C,C9*%
X137470000Y-76310000D03*
X137470000Y-77270000D03*
%TD*%
D13*
%TO.C,J8*%
X138745000Y-74579500D03*
X137495000Y-74579500D03*
D14*
X141295000Y-71829500D03*
X134945000Y-71829500D03*
%TD*%
D25*
%TO.C,C2*%
X120130000Y-129640000D03*
X120130000Y-127980000D03*
%TD*%
D23*
%TO.C,C4*%
X102370000Y-117170000D03*
X104030000Y-117170000D03*
%TD*%
D26*
%TO.C,C12*%
X131798000Y-75184000D03*
X130838000Y-75184000D03*
%TD*%
D24*
%TO.C,C8*%
X157000000Y-76420000D03*
X157000000Y-77380000D03*
%TD*%
D16*
%TO.C,D1*%
X106550000Y-133420000D03*
X108050000Y-133420000D03*
%TD*%
D15*
%TO.C,R10*%
X93990000Y-136120000D03*
X93990000Y-134220000D03*
%TD*%
D10*
%TO.C,R19*%
X150300000Y-119340000D03*
X148400000Y-119340000D03*
%TD*%
D27*
%TO.C,IC1*%
X111612000Y-121155000D03*
X111612000Y-119885000D03*
X111612000Y-118615000D03*
X111612000Y-117345000D03*
X106188000Y-117345000D03*
X106188000Y-118615000D03*
X106188000Y-119885000D03*
X106188000Y-121155000D03*
D28*
X108900000Y-119250000D03*
%TD*%
D16*
%TO.C,R17*%
X133050000Y-76290000D03*
X134650000Y-76290000D03*
%TD*%
%TO.C,R9*%
X115240000Y-121960000D03*
X113640000Y-121960000D03*
%TD*%
D29*
%TO.C,IC3*%
X131445000Y-92628000D03*
X132715000Y-92628000D03*
X133985000Y-92628000D03*
X135255000Y-92628000D03*
X135255000Y-87204000D03*
X133985000Y-87204000D03*
X132715000Y-87204000D03*
X131445000Y-87204000D03*
%TD*%
D10*
%TO.C,R4*%
X126330000Y-138630000D03*
X124430000Y-138630000D03*
%TD*%
D30*
%TO.C,R14*%
X108180000Y-129870000D03*
X108180000Y-128270000D03*
%TD*%
D31*
%TO.C,IC4*%
X140098000Y-133989000D03*
X140098000Y-133339000D03*
X140098000Y-132689000D03*
X140098000Y-132039000D03*
X140098000Y-131389000D03*
X140098000Y-130739000D03*
X140098000Y-130089000D03*
X140098000Y-129439000D03*
X140098000Y-128789000D03*
X140098000Y-128139000D03*
X134222000Y-128139000D03*
X134222000Y-128789000D03*
X134222000Y-129439000D03*
X134222000Y-130089000D03*
X134222000Y-130739000D03*
X134222000Y-131389000D03*
X134222000Y-132039000D03*
X134222000Y-132689000D03*
X134222000Y-133339000D03*
X134222000Y-133989000D03*
%TD*%
D32*
%TO.C,J5*%
X112970000Y-134425000D03*
X113620000Y-134425000D03*
X114270000Y-134425000D03*
X114920000Y-134425000D03*
X115570000Y-134425000D03*
D33*
X113470000Y-137075000D03*
X115070000Y-137075000D03*
%TD*%
D11*
%TO.C,C15*%
X157502000Y-131286000D03*
X157502000Y-132706000D03*
%TD*%
D10*
%TO.C,R20*%
X150280000Y-121540000D03*
X148380000Y-121540000D03*
%TD*%
D15*
%TO.C,R16*%
X105950000Y-129510000D03*
X105950000Y-131410000D03*
%TD*%
D30*
%TO.C,D6*%
X116100000Y-118450000D03*
X116100000Y-116950000D03*
%TD*%
D16*
%TO.C,R13*%
X113650000Y-120260000D03*
X115250000Y-120260000D03*
%TD*%
D13*
%TO.C,J13*%
X124785000Y-119459500D03*
X123535000Y-119459500D03*
D14*
X127335000Y-116709500D03*
X120985000Y-116709500D03*
%TD*%
D34*
%TO.C,Y1*%
X159954000Y-130380000D03*
X159954000Y-132580000D03*
X161654000Y-132580000D03*
X161654000Y-130380000D03*
%TD*%
D35*
%TO.C,D7*%
X144850000Y-121580000D03*
X146725000Y-121580000D03*
%TD*%
D16*
%TO.C,D5*%
X102400000Y-121140000D03*
X103900000Y-121140000D03*
%TD*%
D13*
%TO.C,J6*%
X156995000Y-74549500D03*
X155745000Y-74549500D03*
D14*
X159545000Y-71799500D03*
X153195000Y-71799500D03*
%TD*%
D10*
%TO.C,R3*%
X120780000Y-133630000D03*
X122680000Y-133630000D03*
%TD*%
D27*
%TO.C,IC2*%
X103382000Y-131905000D03*
X103382000Y-130635000D03*
X103382000Y-129365000D03*
X103382000Y-128095000D03*
X97958000Y-128095000D03*
X97958000Y-129365000D03*
X97958000Y-130635000D03*
X97958000Y-131905000D03*
%TD*%
D18*
%TO.C,C7*%
X128400000Y-77280000D03*
X128400000Y-76320000D03*
%TD*%
D15*
%TO.C,R12*%
X93620000Y-127790000D03*
X93620000Y-125890000D03*
%TD*%
D23*
%TO.C,C10*%
X143800000Y-77760000D03*
X142140000Y-77760000D03*
%TD*%
D35*
%TO.C,D8*%
X128094500Y-121666000D03*
X129969500Y-121666000D03*
%TD*%
D10*
%TO.C,R22*%
X123510000Y-121666000D03*
X125410000Y-121666000D03*
%TD*%
D36*
%TO.C,D3*%
X122720000Y-137220000D03*
X120620000Y-137220000D03*
%TD*%
D35*
%TO.C,D9*%
X144842500Y-119260000D03*
X146717500Y-119260000D03*
%TD*%
D11*
%TO.C,C14*%
X164360000Y-131690000D03*
X164360000Y-130270000D03*
%TD*%
D37*
%TO.C,U3*%
X146875000Y-76860000D03*
X148025000Y-76860000D03*
X148025000Y-80060000D03*
X146875000Y-80060000D03*
%TD*%
D38*
%TO.C,D2*%
X128010000Y-129520000D03*
X128010000Y-131620000D03*
%TD*%
D39*
%TO.C,U1*%
X122540000Y-128250000D03*
D40*
X122627500Y-129750000D03*
D39*
X122540000Y-131250000D03*
%TD*%
D36*
%TO.C,D4*%
X106220000Y-138150000D03*
X108320000Y-138150000D03*
%TD*%
D16*
%TO.C,R8*%
X102390000Y-119100000D03*
X103990000Y-119100000D03*
%TD*%
D13*
%TO.C,J7*%
X129685000Y-74549500D03*
X128435000Y-74549500D03*
D14*
X132235000Y-71799500D03*
X125885000Y-71799500D03*
%TD*%
D10*
%TO.C,R1*%
X128280000Y-127620000D03*
X130180000Y-127620000D03*
%TD*%
%TO.C,R21*%
X141040000Y-121550000D03*
X142940000Y-121550000D03*
%TD*%
D41*
%TO.C,Q1*%
X92320000Y-132227500D03*
X94220000Y-132227500D03*
X93270000Y-130352500D03*
%TD*%
D25*
%TO.C,C1*%
X113850000Y-117030000D03*
X113850000Y-118690000D03*
%TD*%
D10*
%TO.C,R2*%
X95692000Y-138176000D03*
X93792000Y-138176000D03*
%TD*%
D13*
%TO.C,J12*%
X136375000Y-121639500D03*
X135125000Y-121639500D03*
D14*
X138925000Y-118889500D03*
X132575000Y-118889500D03*
%TD*%
M02*
