%TF.GenerationSoftware,KiCad,Pcbnew,(6.0.2)*%
%TF.CreationDate,2022-03-20T21:01:56+02:00*%
%TF.ProjectId,main,6d61696e-2e6b-4696-9361-645f70636258,rev?*%
%TF.SameCoordinates,Original*%
%TF.FileFunction,Soldermask,Bot*%
%TF.FilePolarity,Negative*%
%FSLAX46Y46*%
G04 Gerber Fmt 4.6, Leading zero omitted, Abs format (unit mm)*
G04 Created by KiCad (PCBNEW (6.0.2)) date 2022-03-20 21:01:56*
%MOMM*%
%LPD*%
G01*
G04 APERTURE LIST*
%TA.AperFunction,Profile*%
%ADD10C,0.100000*%
%TD*%
%ADD11C,1.570000*%
%ADD12C,3.450000*%
%ADD13C,1.300000*%
%ADD14C,1.900000*%
%ADD15R,1.700000X1.700000*%
%ADD16O,1.700000X1.700000*%
G04 APERTURE END LIST*
D10*
X189700000Y-76480000D02*
X189700000Y-137400000D01*
X100060000Y-69849999D02*
G75*
G03*
X89700000Y-79080000I93771J-10534423D01*
G01*
X89700000Y-134650000D02*
X89700000Y-79080000D01*
X187390000Y-139830000D02*
G75*
G03*
X189700000Y-137400000I17847J2295998D01*
G01*
X100060000Y-69850000D02*
X183790000Y-69850000D01*
X189700000Y-76480000D02*
G75*
G03*
X183790000Y-69850000I-6555369J105621D01*
G01*
X187390000Y-139830000D02*
X94910000Y-139830000D01*
X89700000Y-134650000D02*
G75*
G03*
X94910000Y-139830000I4932314J-249207D01*
G01*
D11*
%TO.C,BT1*%
X172905000Y-112550000D03*
D12*
X109375000Y-112550000D03*
X164575000Y-96550000D03*
%TD*%
D13*
%TO.C,J5*%
X138350000Y-137775000D03*
X133500000Y-137775000D03*
D14*
X139525000Y-135105000D03*
X132325000Y-135105000D03*
%TD*%
D15*
%TO.C,J2*%
X179400000Y-84100000D03*
D16*
X176860000Y-84100000D03*
X174320000Y-84100000D03*
X171780000Y-84100000D03*
X169240000Y-84100000D03*
X166700000Y-84100000D03*
X164160000Y-84100000D03*
X161620000Y-84100000D03*
X159080000Y-84100000D03*
X156540000Y-84100000D03*
X154000000Y-84100000D03*
X151460000Y-84100000D03*
X148920000Y-84100000D03*
X146380000Y-84100000D03*
X143840000Y-84100000D03*
X141300000Y-84100000D03*
X138760000Y-84100000D03*
X136220000Y-84100000D03*
X133680000Y-84100000D03*
X131140000Y-84100000D03*
X128600000Y-84100000D03*
X126060000Y-84100000D03*
X123520000Y-84100000D03*
X120980000Y-84100000D03*
X118440000Y-84100000D03*
X115900000Y-84100000D03*
X113360000Y-84100000D03*
X110820000Y-84100000D03*
X108280000Y-84100000D03*
X105740000Y-84100000D03*
X103200000Y-84100000D03*
X100660000Y-84100000D03*
X98120000Y-84100000D03*
%TD*%
D15*
%TO.C,J3*%
X179440000Y-124700000D03*
D16*
X176900000Y-124700000D03*
X174360000Y-124700000D03*
X171820000Y-124700000D03*
X169280000Y-124700000D03*
X166740000Y-124700000D03*
X164200000Y-124700000D03*
X161660000Y-124700000D03*
X159120000Y-124700000D03*
X156580000Y-124700000D03*
X154040000Y-124700000D03*
X151500000Y-124700000D03*
X148960000Y-124700000D03*
X146420000Y-124700000D03*
X143880000Y-124700000D03*
X141340000Y-124700000D03*
X138800000Y-124700000D03*
X136260000Y-124700000D03*
X133720000Y-124700000D03*
X131180000Y-124700000D03*
X128640000Y-124700000D03*
X126100000Y-124700000D03*
X123560000Y-124700000D03*
X121020000Y-124700000D03*
X118480000Y-124700000D03*
X115940000Y-124700000D03*
X113400000Y-124700000D03*
X110860000Y-124700000D03*
X108320000Y-124700000D03*
X105780000Y-124700000D03*
X103240000Y-124700000D03*
X100700000Y-124700000D03*
X98160000Y-124700000D03*
%TD*%
M02*
