%TF.GenerationSoftware,KiCad,Pcbnew,(6.0.2)*%
%TF.CreationDate,2022-03-20T21:01:56+02:00*%
%TF.ProjectId,main,6d61696e-2e6b-4696-9361-645f70636258,rev?*%
%TF.SameCoordinates,Original*%
%TF.FileFunction,Legend,Top*%
%TF.FilePolarity,Positive*%
%FSLAX46Y46*%
G04 Gerber Fmt 4.6, Leading zero omitted, Abs format (unit mm)*
G04 Created by KiCad (PCBNEW (6.0.2)) date 2022-03-20 21:01:56*
%MOMM*%
%LPD*%
G01*
G04 APERTURE LIST*
%TA.AperFunction,Profile*%
%ADD10C,0.100000*%
%TD*%
%ADD11C,1.000000*%
%ADD12C,0.400000*%
%ADD13C,0.067500*%
%ADD14C,0.254000*%
%ADD15C,0.150000*%
%ADD16C,0.152000*%
%ADD17C,0.200000*%
%ADD18C,0.120000*%
%ADD19C,0.100000*%
%ADD20C,0.127000*%
G04 APERTURE END LIST*
D10*
X189700000Y-76480000D02*
X189700000Y-137400000D01*
X100060000Y-69849999D02*
G75*
G03*
X89700000Y-79080000I93771J-10534423D01*
G01*
X89700000Y-134650000D02*
X89700000Y-79080000D01*
X187390000Y-139830000D02*
G75*
G03*
X189700000Y-137400000I17847J2295998D01*
G01*
X100060000Y-69850000D02*
X183790000Y-69850000D01*
X189700000Y-76480000D02*
G75*
G03*
X183790000Y-69850000I-6555369J105621D01*
G01*
X187390000Y-139830000D02*
X94910000Y-139830000D01*
X89700000Y-134650000D02*
G75*
G03*
X94910000Y-139830000I4932314J-249207D01*
G01*
D11*
X177458333Y-97375000D02*
X182791666Y-97375000D01*
X91133333Y-97525000D02*
X96466666Y-97525000D01*
X93800000Y-100191666D02*
X93800000Y-94858333D01*
D12*
X161429285Y-131387142D02*
X162095952Y-131387142D01*
X162381666Y-132434761D02*
X161429285Y-132434761D01*
X161429285Y-130434761D01*
X162381666Y-130434761D01*
X163238809Y-131387142D02*
X163905476Y-131387142D01*
X164191190Y-132434761D02*
X163238809Y-132434761D01*
X163238809Y-130434761D01*
X164191190Y-130434761D01*
X165048333Y-131387142D02*
X165715000Y-131387142D01*
X166000714Y-132434761D02*
X165048333Y-132434761D01*
X165048333Y-130434761D01*
X166000714Y-130434761D01*
X166667380Y-130434761D02*
X167905476Y-130434761D01*
X167238809Y-131196666D01*
X167524523Y-131196666D01*
X167714999Y-131291904D01*
X167810238Y-131387142D01*
X167905476Y-131577619D01*
X167905476Y-132053809D01*
X167810238Y-132244285D01*
X167714999Y-132339523D01*
X167524523Y-132434761D01*
X166953095Y-132434761D01*
X166762619Y-132339523D01*
X166667380Y-132244285D01*
X169143571Y-130434761D02*
X169334047Y-130434761D01*
X169524523Y-130530000D01*
X169619761Y-130625238D01*
X169715000Y-130815714D01*
X169810238Y-131196666D01*
X169810238Y-131672857D01*
X169715000Y-132053809D01*
X169619761Y-132244285D01*
X169524523Y-132339523D01*
X169334047Y-132434761D01*
X169143571Y-132434761D01*
X168953095Y-132339523D01*
X168857857Y-132244285D01*
X168762619Y-132053809D01*
X168667380Y-131672857D01*
X168667380Y-131196666D01*
X168762619Y-130815714D01*
X168857857Y-130625238D01*
X168953095Y-130530000D01*
X169143571Y-130434761D01*
X170953095Y-131291904D02*
X170762619Y-131196666D01*
X170667380Y-131101428D01*
X170572142Y-130910952D01*
X170572142Y-130815714D01*
X170667380Y-130625238D01*
X170762619Y-130530000D01*
X170953095Y-130434761D01*
X171334047Y-130434761D01*
X171524523Y-130530000D01*
X171619761Y-130625238D01*
X171715000Y-130815714D01*
X171715000Y-130910952D01*
X171619761Y-131101428D01*
X171524523Y-131196666D01*
X171334047Y-131291904D01*
X170953095Y-131291904D01*
X170762619Y-131387142D01*
X170667380Y-131482380D01*
X170572142Y-131672857D01*
X170572142Y-132053809D01*
X170667380Y-132244285D01*
X170762619Y-132339523D01*
X170953095Y-132434761D01*
X171334047Y-132434761D01*
X171524523Y-132339523D01*
X171619761Y-132244285D01*
X171715000Y-132053809D01*
X171715000Y-131672857D01*
X171619761Y-131482380D01*
X171524523Y-131387142D01*
X171334047Y-131291904D01*
X172857857Y-131291904D02*
X172667380Y-131196666D01*
X172572142Y-131101428D01*
X172476904Y-130910952D01*
X172476904Y-130815714D01*
X172572142Y-130625238D01*
X172667380Y-130530000D01*
X172857857Y-130434761D01*
X173238809Y-130434761D01*
X173429285Y-130530000D01*
X173524523Y-130625238D01*
X173619761Y-130815714D01*
X173619761Y-130910952D01*
X173524523Y-131101428D01*
X173429285Y-131196666D01*
X173238809Y-131291904D01*
X172857857Y-131291904D01*
X172667380Y-131387142D01*
X172572142Y-131482380D01*
X172476904Y-131672857D01*
X172476904Y-132053809D01*
X172572142Y-132244285D01*
X172667380Y-132339523D01*
X172857857Y-132434761D01*
X173238809Y-132434761D01*
X173429285Y-132339523D01*
X173524523Y-132244285D01*
X173619761Y-132053809D01*
X173619761Y-131672857D01*
X173524523Y-131482380D01*
X173429285Y-131387142D01*
X173238809Y-131291904D01*
X175143571Y-131387142D02*
X174476904Y-131387142D01*
X174476904Y-132434761D02*
X174476904Y-130434761D01*
X175429285Y-130434761D01*
X165143571Y-133750000D02*
X164953095Y-133654761D01*
X164667380Y-133654761D01*
X164381666Y-133750000D01*
X164191190Y-133940476D01*
X164095952Y-134130952D01*
X164000714Y-134511904D01*
X164000714Y-134797619D01*
X164095952Y-135178571D01*
X164191190Y-135369047D01*
X164381666Y-135559523D01*
X164667380Y-135654761D01*
X164857857Y-135654761D01*
X165143571Y-135559523D01*
X165238809Y-135464285D01*
X165238809Y-134797619D01*
X164857857Y-134797619D01*
X166095952Y-135654761D02*
X166095952Y-134321428D01*
X166095952Y-134702380D02*
X166191190Y-134511904D01*
X166286428Y-134416666D01*
X166476904Y-134321428D01*
X166667380Y-134321428D01*
X167619761Y-135654761D02*
X167429285Y-135559523D01*
X167334047Y-135464285D01*
X167238809Y-135273809D01*
X167238809Y-134702380D01*
X167334047Y-134511904D01*
X167429285Y-134416666D01*
X167619761Y-134321428D01*
X167905476Y-134321428D01*
X168095952Y-134416666D01*
X168191190Y-134511904D01*
X168286428Y-134702380D01*
X168286428Y-135273809D01*
X168191190Y-135464285D01*
X168095952Y-135559523D01*
X167905476Y-135654761D01*
X167619761Y-135654761D01*
X170000714Y-134321428D02*
X170000714Y-135654761D01*
X169143571Y-134321428D02*
X169143571Y-135369047D01*
X169238809Y-135559523D01*
X169429285Y-135654761D01*
X169715000Y-135654761D01*
X169905476Y-135559523D01*
X170000714Y-135464285D01*
X170953095Y-134321428D02*
X170953095Y-136321428D01*
X170953095Y-134416666D02*
X171143571Y-134321428D01*
X171524523Y-134321428D01*
X171715000Y-134416666D01*
X171810238Y-134511904D01*
X171905476Y-134702380D01*
X171905476Y-135273809D01*
X171810238Y-135464285D01*
X171715000Y-135559523D01*
X171524523Y-135654761D01*
X171143571Y-135654761D01*
X170953095Y-135559523D01*
X174095952Y-133654761D02*
X175429285Y-133654761D01*
X174572142Y-135654761D01*
X167810238Y-137541428D02*
X168286428Y-138874761D01*
X168762619Y-137541428D01*
X169905476Y-136874761D02*
X170095952Y-136874761D01*
X170286428Y-136970000D01*
X170381666Y-137065238D01*
X170476904Y-137255714D01*
X170572142Y-137636666D01*
X170572142Y-138112857D01*
X170476904Y-138493809D01*
X170381666Y-138684285D01*
X170286428Y-138779523D01*
X170095952Y-138874761D01*
X169905476Y-138874761D01*
X169715000Y-138779523D01*
X169619761Y-138684285D01*
X169524523Y-138493809D01*
X169429285Y-138112857D01*
X169429285Y-137636666D01*
X169524523Y-137255714D01*
X169619761Y-137065238D01*
X169715000Y-136970000D01*
X169905476Y-136874761D01*
X171429285Y-138684285D02*
X171524523Y-138779523D01*
X171429285Y-138874761D01*
X171334047Y-138779523D01*
X171429285Y-138684285D01*
X171429285Y-138874761D01*
X172762619Y-136874761D02*
X172953095Y-136874761D01*
X173143571Y-136970000D01*
X173238809Y-137065238D01*
X173334047Y-137255714D01*
X173429285Y-137636666D01*
X173429285Y-138112857D01*
X173334047Y-138493809D01*
X173238809Y-138684285D01*
X173143571Y-138779523D01*
X172953095Y-138874761D01*
X172762619Y-138874761D01*
X172572142Y-138779523D01*
X172476904Y-138684285D01*
X172381666Y-138493809D01*
X172286428Y-138112857D01*
X172286428Y-137636666D01*
X172381666Y-137255714D01*
X172476904Y-137065238D01*
X172572142Y-136970000D01*
X172762619Y-136874761D01*
X175334047Y-138874761D02*
X174191190Y-138874761D01*
X174762619Y-138874761D02*
X174762619Y-136874761D01*
X174572142Y-137160476D01*
X174381666Y-137350952D01*
X174191190Y-137446190D01*
D13*
%TO.C,C5*%
X114955000Y-135196428D02*
X114942142Y-135209285D01*
X114903571Y-135222142D01*
X114877857Y-135222142D01*
X114839285Y-135209285D01*
X114813571Y-135183571D01*
X114800714Y-135157857D01*
X114787857Y-135106428D01*
X114787857Y-135067857D01*
X114800714Y-135016428D01*
X114813571Y-134990714D01*
X114839285Y-134965000D01*
X114877857Y-134952142D01*
X114903571Y-134952142D01*
X114942142Y-134965000D01*
X114955000Y-134977857D01*
X115199285Y-134952142D02*
X115070714Y-134952142D01*
X115057857Y-135080714D01*
X115070714Y-135067857D01*
X115096428Y-135055000D01*
X115160714Y-135055000D01*
X115186428Y-135067857D01*
X115199285Y-135080714D01*
X115212142Y-135106428D01*
X115212142Y-135170714D01*
X115199285Y-135196428D01*
X115186428Y-135209285D01*
X115160714Y-135222142D01*
X115096428Y-135222142D01*
X115070714Y-135209285D01*
X115057857Y-135196428D01*
D14*
%TO.C,R5*%
X158974523Y-135536666D02*
X158369761Y-135960000D01*
X158974523Y-136262380D02*
X157704523Y-136262380D01*
X157704523Y-135778571D01*
X157765000Y-135657619D01*
X157825476Y-135597142D01*
X157946428Y-135536666D01*
X158127857Y-135536666D01*
X158248809Y-135597142D01*
X158309285Y-135657619D01*
X158369761Y-135778571D01*
X158369761Y-136262380D01*
X157704523Y-134387619D02*
X157704523Y-134992380D01*
X158309285Y-135052857D01*
X158248809Y-134992380D01*
X158188333Y-134871428D01*
X158188333Y-134569047D01*
X158248809Y-134448095D01*
X158309285Y-134387619D01*
X158430238Y-134327142D01*
X158732619Y-134327142D01*
X158853571Y-134387619D01*
X158914047Y-134448095D01*
X158974523Y-134569047D01*
X158974523Y-134871428D01*
X158914047Y-134992380D01*
X158853571Y-135052857D01*
%TO.C,D3*%
X112512619Y-118274523D02*
X112512619Y-117004523D01*
X112815000Y-117004523D01*
X112996428Y-117065000D01*
X113117380Y-117185952D01*
X113177857Y-117306904D01*
X113238333Y-117548809D01*
X113238333Y-117730238D01*
X113177857Y-117972142D01*
X113117380Y-118093095D01*
X112996428Y-118214047D01*
X112815000Y-118274523D01*
X112512619Y-118274523D01*
X113661666Y-117004523D02*
X114447857Y-117004523D01*
X114024523Y-117488333D01*
X114205952Y-117488333D01*
X114326904Y-117548809D01*
X114387380Y-117609285D01*
X114447857Y-117730238D01*
X114447857Y-118032619D01*
X114387380Y-118153571D01*
X114326904Y-118214047D01*
X114205952Y-118274523D01*
X113843095Y-118274523D01*
X113722142Y-118214047D01*
X113661666Y-118153571D01*
%TO.C,R8*%
X101888333Y-116374523D02*
X101465000Y-115769761D01*
X101162619Y-116374523D02*
X101162619Y-115104523D01*
X101646428Y-115104523D01*
X101767380Y-115165000D01*
X101827857Y-115225476D01*
X101888333Y-115346428D01*
X101888333Y-115527857D01*
X101827857Y-115648809D01*
X101767380Y-115709285D01*
X101646428Y-115769761D01*
X101162619Y-115769761D01*
X102614047Y-115648809D02*
X102493095Y-115588333D01*
X102432619Y-115527857D01*
X102372142Y-115406904D01*
X102372142Y-115346428D01*
X102432619Y-115225476D01*
X102493095Y-115165000D01*
X102614047Y-115104523D01*
X102855952Y-115104523D01*
X102976904Y-115165000D01*
X103037380Y-115225476D01*
X103097857Y-115346428D01*
X103097857Y-115406904D01*
X103037380Y-115527857D01*
X102976904Y-115588333D01*
X102855952Y-115648809D01*
X102614047Y-115648809D01*
X102493095Y-115709285D01*
X102432619Y-115769761D01*
X102372142Y-115890714D01*
X102372142Y-116132619D01*
X102432619Y-116253571D01*
X102493095Y-116314047D01*
X102614047Y-116374523D01*
X102855952Y-116374523D01*
X102976904Y-116314047D01*
X103037380Y-116253571D01*
X103097857Y-116132619D01*
X103097857Y-115890714D01*
X103037380Y-115769761D01*
X102976904Y-115709285D01*
X102855952Y-115648809D01*
D15*
%TO.C,D1*%
X143386904Y-139502380D02*
X143386904Y-138502380D01*
X143625000Y-138502380D01*
X143767857Y-138550000D01*
X143863095Y-138645238D01*
X143910714Y-138740476D01*
X143958333Y-138930952D01*
X143958333Y-139073809D01*
X143910714Y-139264285D01*
X143863095Y-139359523D01*
X143767857Y-139454761D01*
X143625000Y-139502380D01*
X143386904Y-139502380D01*
X144910714Y-139502380D02*
X144339285Y-139502380D01*
X144625000Y-139502380D02*
X144625000Y-138502380D01*
X144529761Y-138645238D01*
X144434523Y-138740476D01*
X144339285Y-138788095D01*
D14*
%TO.C,C2*%
X117253571Y-119511666D02*
X117314047Y-119572142D01*
X117374523Y-119753571D01*
X117374523Y-119874523D01*
X117314047Y-120055952D01*
X117193095Y-120176904D01*
X117072142Y-120237380D01*
X116830238Y-120297857D01*
X116648809Y-120297857D01*
X116406904Y-120237380D01*
X116285952Y-120176904D01*
X116165000Y-120055952D01*
X116104523Y-119874523D01*
X116104523Y-119753571D01*
X116165000Y-119572142D01*
X116225476Y-119511666D01*
X116225476Y-119027857D02*
X116165000Y-118967380D01*
X116104523Y-118846428D01*
X116104523Y-118544047D01*
X116165000Y-118423095D01*
X116225476Y-118362619D01*
X116346428Y-118302142D01*
X116467380Y-118302142D01*
X116648809Y-118362619D01*
X117374523Y-119088333D01*
X117374523Y-118302142D01*
%TO.C,C6*%
X122753571Y-134011666D02*
X122814047Y-134072142D01*
X122874523Y-134253571D01*
X122874523Y-134374523D01*
X122814047Y-134555952D01*
X122693095Y-134676904D01*
X122572142Y-134737380D01*
X122330238Y-134797857D01*
X122148809Y-134797857D01*
X121906904Y-134737380D01*
X121785952Y-134676904D01*
X121665000Y-134555952D01*
X121604523Y-134374523D01*
X121604523Y-134253571D01*
X121665000Y-134072142D01*
X121725476Y-134011666D01*
X121604523Y-132923095D02*
X121604523Y-133165000D01*
X121665000Y-133285952D01*
X121725476Y-133346428D01*
X121906904Y-133467380D01*
X122148809Y-133527857D01*
X122632619Y-133527857D01*
X122753571Y-133467380D01*
X122814047Y-133406904D01*
X122874523Y-133285952D01*
X122874523Y-133044047D01*
X122814047Y-132923095D01*
X122753571Y-132862619D01*
X122632619Y-132802142D01*
X122330238Y-132802142D01*
X122209285Y-132862619D01*
X122148809Y-132923095D01*
X122088333Y-133044047D01*
X122088333Y-133285952D01*
X122148809Y-133406904D01*
X122209285Y-133467380D01*
X122330238Y-133527857D01*
%TO.C,BT1*%
X135977142Y-104459285D02*
X136158571Y-104519761D01*
X136219047Y-104580238D01*
X136279523Y-104701190D01*
X136279523Y-104882619D01*
X136219047Y-105003571D01*
X136158571Y-105064047D01*
X136037619Y-105124523D01*
X135553809Y-105124523D01*
X135553809Y-103854523D01*
X135977142Y-103854523D01*
X136098095Y-103915000D01*
X136158571Y-103975476D01*
X136219047Y-104096428D01*
X136219047Y-104217380D01*
X136158571Y-104338333D01*
X136098095Y-104398809D01*
X135977142Y-104459285D01*
X135553809Y-104459285D01*
X136642380Y-103854523D02*
X137368095Y-103854523D01*
X137005238Y-105124523D02*
X137005238Y-103854523D01*
X138456666Y-105124523D02*
X137730952Y-105124523D01*
X138093809Y-105124523D02*
X138093809Y-103854523D01*
X137972857Y-104035952D01*
X137851904Y-104156904D01*
X137730952Y-104217380D01*
D15*
%TO.C,TP2*%
X153638095Y-137852380D02*
X154209523Y-137852380D01*
X153923809Y-138852380D02*
X153923809Y-137852380D01*
X154542857Y-138852380D02*
X154542857Y-137852380D01*
X154923809Y-137852380D01*
X155019047Y-137900000D01*
X155066666Y-137947619D01*
X155114285Y-138042857D01*
X155114285Y-138185714D01*
X155066666Y-138280952D01*
X155019047Y-138328571D01*
X154923809Y-138376190D01*
X154542857Y-138376190D01*
X155495238Y-137947619D02*
X155542857Y-137900000D01*
X155638095Y-137852380D01*
X155876190Y-137852380D01*
X155971428Y-137900000D01*
X156019047Y-137947619D01*
X156066666Y-138042857D01*
X156066666Y-138138095D01*
X156019047Y-138280952D01*
X155447619Y-138852380D01*
X156066666Y-138852380D01*
D14*
%TO.C,IC1*%
X103335238Y-123174523D02*
X103335238Y-121904523D01*
X104665714Y-123053571D02*
X104605238Y-123114047D01*
X104423809Y-123174523D01*
X104302857Y-123174523D01*
X104121428Y-123114047D01*
X104000476Y-122993095D01*
X103940000Y-122872142D01*
X103879523Y-122630238D01*
X103879523Y-122448809D01*
X103940000Y-122206904D01*
X104000476Y-122085952D01*
X104121428Y-121965000D01*
X104302857Y-121904523D01*
X104423809Y-121904523D01*
X104605238Y-121965000D01*
X104665714Y-122025476D01*
X105875238Y-123174523D02*
X105149523Y-123174523D01*
X105512380Y-123174523D02*
X105512380Y-121904523D01*
X105391428Y-122085952D01*
X105270476Y-122206904D01*
X105149523Y-122267380D01*
D15*
%TO.C,D2*%
X145161904Y-139502380D02*
X145161904Y-138502380D01*
X145400000Y-138502380D01*
X145542857Y-138550000D01*
X145638095Y-138645238D01*
X145685714Y-138740476D01*
X145733333Y-138930952D01*
X145733333Y-139073809D01*
X145685714Y-139264285D01*
X145638095Y-139359523D01*
X145542857Y-139454761D01*
X145400000Y-139502380D01*
X145161904Y-139502380D01*
X146114285Y-138597619D02*
X146161904Y-138550000D01*
X146257142Y-138502380D01*
X146495238Y-138502380D01*
X146590476Y-138550000D01*
X146638095Y-138597619D01*
X146685714Y-138692857D01*
X146685714Y-138788095D01*
X146638095Y-138930952D01*
X146066666Y-139502380D01*
X146685714Y-139502380D01*
D14*
%TO.C,U1*%
X98357380Y-138129523D02*
X98357380Y-139157619D01*
X98417857Y-139278571D01*
X98478333Y-139339047D01*
X98599285Y-139399523D01*
X98841190Y-139399523D01*
X98962142Y-139339047D01*
X99022619Y-139278571D01*
X99083095Y-139157619D01*
X99083095Y-138129523D01*
X100353095Y-139399523D02*
X99627380Y-139399523D01*
X99990238Y-139399523D02*
X99990238Y-138129523D01*
X99869285Y-138310952D01*
X99748333Y-138431904D01*
X99627380Y-138492380D01*
%TO.C,J5*%
X135501666Y-130004523D02*
X135501666Y-130911666D01*
X135441190Y-131093095D01*
X135320238Y-131214047D01*
X135138809Y-131274523D01*
X135017857Y-131274523D01*
X136711190Y-130004523D02*
X136106428Y-130004523D01*
X136045952Y-130609285D01*
X136106428Y-130548809D01*
X136227380Y-130488333D01*
X136529761Y-130488333D01*
X136650714Y-130548809D01*
X136711190Y-130609285D01*
X136771666Y-130730238D01*
X136771666Y-131032619D01*
X136711190Y-131153571D01*
X136650714Y-131214047D01*
X136529761Y-131274523D01*
X136227380Y-131274523D01*
X136106428Y-131214047D01*
X136045952Y-131153571D01*
D15*
%TO.C,U4*%
X135452380Y-120661904D02*
X136261904Y-120661904D01*
X136357142Y-120614285D01*
X136404761Y-120566666D01*
X136452380Y-120471428D01*
X136452380Y-120280952D01*
X136404761Y-120185714D01*
X136357142Y-120138095D01*
X136261904Y-120090476D01*
X135452380Y-120090476D01*
X135785714Y-119185714D02*
X136452380Y-119185714D01*
X135404761Y-119423809D02*
X136119047Y-119661904D01*
X136119047Y-119042857D01*
D14*
%TO.C,C7*%
X107553571Y-129111666D02*
X107614047Y-129172142D01*
X107674523Y-129353571D01*
X107674523Y-129474523D01*
X107614047Y-129655952D01*
X107493095Y-129776904D01*
X107372142Y-129837380D01*
X107130238Y-129897857D01*
X106948809Y-129897857D01*
X106706904Y-129837380D01*
X106585952Y-129776904D01*
X106465000Y-129655952D01*
X106404523Y-129474523D01*
X106404523Y-129353571D01*
X106465000Y-129172142D01*
X106525476Y-129111666D01*
X106404523Y-128688333D02*
X106404523Y-127841666D01*
X107674523Y-128385952D01*
%TO.C,R7*%
X160888333Y-139074523D02*
X160465000Y-138469761D01*
X160162619Y-139074523D02*
X160162619Y-137804523D01*
X160646428Y-137804523D01*
X160767380Y-137865000D01*
X160827857Y-137925476D01*
X160888333Y-138046428D01*
X160888333Y-138227857D01*
X160827857Y-138348809D01*
X160767380Y-138409285D01*
X160646428Y-138469761D01*
X160162619Y-138469761D01*
X161311666Y-137804523D02*
X162158333Y-137804523D01*
X161614047Y-139074523D01*
%TO.C,R19*%
X177483571Y-115374523D02*
X177060238Y-114769761D01*
X176757857Y-115374523D02*
X176757857Y-114104523D01*
X177241666Y-114104523D01*
X177362619Y-114165000D01*
X177423095Y-114225476D01*
X177483571Y-114346428D01*
X177483571Y-114527857D01*
X177423095Y-114648809D01*
X177362619Y-114709285D01*
X177241666Y-114769761D01*
X176757857Y-114769761D01*
X178693095Y-115374523D02*
X177967380Y-115374523D01*
X178330238Y-115374523D02*
X178330238Y-114104523D01*
X178209285Y-114285952D01*
X178088333Y-114406904D01*
X177967380Y-114467380D01*
X179297857Y-115374523D02*
X179539761Y-115374523D01*
X179660714Y-115314047D01*
X179721190Y-115253571D01*
X179842142Y-115072142D01*
X179902619Y-114830238D01*
X179902619Y-114346428D01*
X179842142Y-114225476D01*
X179781666Y-114165000D01*
X179660714Y-114104523D01*
X179418809Y-114104523D01*
X179297857Y-114165000D01*
X179237380Y-114225476D01*
X179176904Y-114346428D01*
X179176904Y-114648809D01*
X179237380Y-114769761D01*
X179297857Y-114830238D01*
X179418809Y-114890714D01*
X179660714Y-114890714D01*
X179781666Y-114830238D01*
X179842142Y-114769761D01*
X179902619Y-114648809D01*
D15*
%TO.C,D7*%
X153761904Y-114452380D02*
X153761904Y-113452380D01*
X154000000Y-113452380D01*
X154142857Y-113500000D01*
X154238095Y-113595238D01*
X154285714Y-113690476D01*
X154333333Y-113880952D01*
X154333333Y-114023809D01*
X154285714Y-114214285D01*
X154238095Y-114309523D01*
X154142857Y-114404761D01*
X154000000Y-114452380D01*
X153761904Y-114452380D01*
X154666666Y-113452380D02*
X155333333Y-113452380D01*
X154904761Y-114452380D01*
D14*
%TO.C,Q3*%
X112204047Y-139520476D02*
X112083095Y-139460000D01*
X111962142Y-139339047D01*
X111780714Y-139157619D01*
X111659761Y-139097142D01*
X111538809Y-139097142D01*
X111599285Y-139399523D02*
X111478333Y-139339047D01*
X111357380Y-139218095D01*
X111296904Y-138976190D01*
X111296904Y-138552857D01*
X111357380Y-138310952D01*
X111478333Y-138190000D01*
X111599285Y-138129523D01*
X111841190Y-138129523D01*
X111962142Y-138190000D01*
X112083095Y-138310952D01*
X112143571Y-138552857D01*
X112143571Y-138976190D01*
X112083095Y-139218095D01*
X111962142Y-139339047D01*
X111841190Y-139399523D01*
X111599285Y-139399523D01*
X112566904Y-138129523D02*
X113353095Y-138129523D01*
X112929761Y-138613333D01*
X113111190Y-138613333D01*
X113232142Y-138673809D01*
X113292619Y-138734285D01*
X113353095Y-138855238D01*
X113353095Y-139157619D01*
X113292619Y-139278571D01*
X113232142Y-139339047D01*
X113111190Y-139399523D01*
X112748333Y-139399523D01*
X112627380Y-139339047D01*
X112566904Y-139278571D01*
D15*
%TO.C,D6*%
X154261904Y-121052380D02*
X154261904Y-120052380D01*
X154500000Y-120052380D01*
X154642857Y-120100000D01*
X154738095Y-120195238D01*
X154785714Y-120290476D01*
X154833333Y-120480952D01*
X154833333Y-120623809D01*
X154785714Y-120814285D01*
X154738095Y-120909523D01*
X154642857Y-121004761D01*
X154500000Y-121052380D01*
X154261904Y-121052380D01*
X155690476Y-120052380D02*
X155500000Y-120052380D01*
X155404761Y-120100000D01*
X155357142Y-120147619D01*
X155261904Y-120290476D01*
X155214285Y-120480952D01*
X155214285Y-120861904D01*
X155261904Y-120957142D01*
X155309523Y-121004761D01*
X155404761Y-121052380D01*
X155595238Y-121052380D01*
X155690476Y-121004761D01*
X155738095Y-120957142D01*
X155785714Y-120861904D01*
X155785714Y-120623809D01*
X155738095Y-120528571D01*
X155690476Y-120480952D01*
X155595238Y-120433333D01*
X155404761Y-120433333D01*
X155309523Y-120480952D01*
X155261904Y-120528571D01*
X155214285Y-120623809D01*
D14*
%TO.C,R1*%
X118588333Y-120374523D02*
X118165000Y-119769761D01*
X117862619Y-120374523D02*
X117862619Y-119104523D01*
X118346428Y-119104523D01*
X118467380Y-119165000D01*
X118527857Y-119225476D01*
X118588333Y-119346428D01*
X118588333Y-119527857D01*
X118527857Y-119648809D01*
X118467380Y-119709285D01*
X118346428Y-119769761D01*
X117862619Y-119769761D01*
X119797857Y-120374523D02*
X119072142Y-120374523D01*
X119435000Y-120374523D02*
X119435000Y-119104523D01*
X119314047Y-119285952D01*
X119193095Y-119406904D01*
X119072142Y-119467380D01*
D15*
%TO.C,C10*%
X177057142Y-91657142D02*
X177009523Y-91704761D01*
X176866666Y-91752380D01*
X176771428Y-91752380D01*
X176628571Y-91704761D01*
X176533333Y-91609523D01*
X176485714Y-91514285D01*
X176438095Y-91323809D01*
X176438095Y-91180952D01*
X176485714Y-90990476D01*
X176533333Y-90895238D01*
X176628571Y-90800000D01*
X176771428Y-90752380D01*
X176866666Y-90752380D01*
X177009523Y-90800000D01*
X177057142Y-90847619D01*
X178009523Y-91752380D02*
X177438095Y-91752380D01*
X177723809Y-91752380D02*
X177723809Y-90752380D01*
X177628571Y-90895238D01*
X177533333Y-90990476D01*
X177438095Y-91038095D01*
X178628571Y-90752380D02*
X178723809Y-90752380D01*
X178819047Y-90800000D01*
X178866666Y-90847619D01*
X178914285Y-90942857D01*
X178961904Y-91133333D01*
X178961904Y-91371428D01*
X178914285Y-91561904D01*
X178866666Y-91657142D01*
X178819047Y-91704761D01*
X178723809Y-91752380D01*
X178628571Y-91752380D01*
X178533333Y-91704761D01*
X178485714Y-91657142D01*
X178438095Y-91561904D01*
X178390476Y-91371428D01*
X178390476Y-91133333D01*
X178438095Y-90942857D01*
X178485714Y-90847619D01*
X178533333Y-90800000D01*
X178628571Y-90752380D01*
%TO.C,TP12*%
X119961904Y-128452380D02*
X120533333Y-128452380D01*
X120247619Y-129452380D02*
X120247619Y-128452380D01*
X120866666Y-129452380D02*
X120866666Y-128452380D01*
X121247619Y-128452380D01*
X121342857Y-128500000D01*
X121390476Y-128547619D01*
X121438095Y-128642857D01*
X121438095Y-128785714D01*
X121390476Y-128880952D01*
X121342857Y-128928571D01*
X121247619Y-128976190D01*
X120866666Y-128976190D01*
X122390476Y-129452380D02*
X121819047Y-129452380D01*
X122104761Y-129452380D02*
X122104761Y-128452380D01*
X122009523Y-128595238D01*
X121914285Y-128690476D01*
X121819047Y-128738095D01*
X122771428Y-128547619D02*
X122819047Y-128500000D01*
X122914285Y-128452380D01*
X123152380Y-128452380D01*
X123247619Y-128500000D01*
X123295238Y-128547619D01*
X123342857Y-128642857D01*
X123342857Y-128738095D01*
X123295238Y-128880952D01*
X122723809Y-129452380D01*
X123342857Y-129452380D01*
D14*
%TO.C,Y1*%
X158395238Y-121669761D02*
X158395238Y-122274523D01*
X157971904Y-121004523D02*
X158395238Y-121669761D01*
X158818571Y-121004523D01*
X159907142Y-122274523D02*
X159181428Y-122274523D01*
X159544285Y-122274523D02*
X159544285Y-121004523D01*
X159423333Y-121185952D01*
X159302380Y-121306904D01*
X159181428Y-121367380D01*
%TO.C,Q2*%
X98979047Y-135295476D02*
X98858095Y-135235000D01*
X98737142Y-135114047D01*
X98555714Y-134932619D01*
X98434761Y-134872142D01*
X98313809Y-134872142D01*
X98374285Y-135174523D02*
X98253333Y-135114047D01*
X98132380Y-134993095D01*
X98071904Y-134751190D01*
X98071904Y-134327857D01*
X98132380Y-134085952D01*
X98253333Y-133965000D01*
X98374285Y-133904523D01*
X98616190Y-133904523D01*
X98737142Y-133965000D01*
X98858095Y-134085952D01*
X98918571Y-134327857D01*
X98918571Y-134751190D01*
X98858095Y-134993095D01*
X98737142Y-135114047D01*
X98616190Y-135174523D01*
X98374285Y-135174523D01*
X99402380Y-134025476D02*
X99462857Y-133965000D01*
X99583809Y-133904523D01*
X99886190Y-133904523D01*
X100007142Y-133965000D01*
X100067619Y-134025476D01*
X100128095Y-134146428D01*
X100128095Y-134267380D01*
X100067619Y-134448809D01*
X99341904Y-135174523D01*
X100128095Y-135174523D01*
%TO.C,R6*%
X160888333Y-136674523D02*
X160465000Y-136069761D01*
X160162619Y-136674523D02*
X160162619Y-135404523D01*
X160646428Y-135404523D01*
X160767380Y-135465000D01*
X160827857Y-135525476D01*
X160888333Y-135646428D01*
X160888333Y-135827857D01*
X160827857Y-135948809D01*
X160767380Y-136009285D01*
X160646428Y-136069761D01*
X160162619Y-136069761D01*
X161976904Y-135404523D02*
X161735000Y-135404523D01*
X161614047Y-135465000D01*
X161553571Y-135525476D01*
X161432619Y-135706904D01*
X161372142Y-135948809D01*
X161372142Y-136432619D01*
X161432619Y-136553571D01*
X161493095Y-136614047D01*
X161614047Y-136674523D01*
X161855952Y-136674523D01*
X161976904Y-136614047D01*
X162037380Y-136553571D01*
X162097857Y-136432619D01*
X162097857Y-136130238D01*
X162037380Y-136009285D01*
X161976904Y-135948809D01*
X161855952Y-135888333D01*
X161614047Y-135888333D01*
X161493095Y-135948809D01*
X161432619Y-136009285D01*
X161372142Y-136130238D01*
%TO.C,C4*%
X98153571Y-128511666D02*
X98214047Y-128572142D01*
X98274523Y-128753571D01*
X98274523Y-128874523D01*
X98214047Y-129055952D01*
X98093095Y-129176904D01*
X97972142Y-129237380D01*
X97730238Y-129297857D01*
X97548809Y-129297857D01*
X97306904Y-129237380D01*
X97185952Y-129176904D01*
X97065000Y-129055952D01*
X97004523Y-128874523D01*
X97004523Y-128753571D01*
X97065000Y-128572142D01*
X97125476Y-128511666D01*
X97427857Y-127423095D02*
X98274523Y-127423095D01*
X96944047Y-127725476D02*
X97851190Y-128027857D01*
X97851190Y-127241666D01*
D15*
%TO.C,IC3*%
X170322218Y-116153118D02*
X170322218Y-115151488D01*
X171371545Y-116057725D02*
X171323848Y-116105421D01*
X171180758Y-116153118D01*
X171085365Y-116153118D01*
X170942275Y-116105421D01*
X170846881Y-116010028D01*
X170799185Y-115914635D01*
X170751488Y-115723848D01*
X170751488Y-115580758D01*
X170799185Y-115389971D01*
X170846881Y-115294578D01*
X170942275Y-115199185D01*
X171085365Y-115151488D01*
X171180758Y-115151488D01*
X171323848Y-115199185D01*
X171371545Y-115246881D01*
X171705421Y-115151488D02*
X172325478Y-115151488D01*
X171991601Y-115533061D01*
X172134691Y-115533061D01*
X172230085Y-115580758D01*
X172277781Y-115628455D01*
X172325478Y-115723848D01*
X172325478Y-115962331D01*
X172277781Y-116057725D01*
X172230085Y-116105421D01*
X172134691Y-116153118D01*
X171848511Y-116153118D01*
X171753118Y-116105421D01*
X171705421Y-116057725D01*
D14*
%TO.C,R20*%
X145083571Y-114074523D02*
X144660238Y-113469761D01*
X144357857Y-114074523D02*
X144357857Y-112804523D01*
X144841666Y-112804523D01*
X144962619Y-112865000D01*
X145023095Y-112925476D01*
X145083571Y-113046428D01*
X145083571Y-113227857D01*
X145023095Y-113348809D01*
X144962619Y-113409285D01*
X144841666Y-113469761D01*
X144357857Y-113469761D01*
X145567380Y-112925476D02*
X145627857Y-112865000D01*
X145748809Y-112804523D01*
X146051190Y-112804523D01*
X146172142Y-112865000D01*
X146232619Y-112925476D01*
X146293095Y-113046428D01*
X146293095Y-113167380D01*
X146232619Y-113348809D01*
X145506904Y-114074523D01*
X146293095Y-114074523D01*
X147079285Y-112804523D02*
X147200238Y-112804523D01*
X147321190Y-112865000D01*
X147381666Y-112925476D01*
X147442142Y-113046428D01*
X147502619Y-113288333D01*
X147502619Y-113590714D01*
X147442142Y-113832619D01*
X147381666Y-113953571D01*
X147321190Y-114014047D01*
X147200238Y-114074523D01*
X147079285Y-114074523D01*
X146958333Y-114014047D01*
X146897857Y-113953571D01*
X146837380Y-113832619D01*
X146776904Y-113590714D01*
X146776904Y-113288333D01*
X146837380Y-113046428D01*
X146897857Y-112925476D01*
X146958333Y-112865000D01*
X147079285Y-112804523D01*
D15*
%TO.C,D8*%
X131461904Y-117052380D02*
X131461904Y-116052380D01*
X131700000Y-116052380D01*
X131842857Y-116100000D01*
X131938095Y-116195238D01*
X131985714Y-116290476D01*
X132033333Y-116480952D01*
X132033333Y-116623809D01*
X131985714Y-116814285D01*
X131938095Y-116909523D01*
X131842857Y-117004761D01*
X131700000Y-117052380D01*
X131461904Y-117052380D01*
X132604761Y-116480952D02*
X132509523Y-116433333D01*
X132461904Y-116385714D01*
X132414285Y-116290476D01*
X132414285Y-116242857D01*
X132461904Y-116147619D01*
X132509523Y-116100000D01*
X132604761Y-116052380D01*
X132795238Y-116052380D01*
X132890476Y-116100000D01*
X132938095Y-116147619D01*
X132985714Y-116242857D01*
X132985714Y-116290476D01*
X132938095Y-116385714D01*
X132890476Y-116433333D01*
X132795238Y-116480952D01*
X132604761Y-116480952D01*
X132509523Y-116528571D01*
X132461904Y-116576190D01*
X132414285Y-116671428D01*
X132414285Y-116861904D01*
X132461904Y-116957142D01*
X132509523Y-117004761D01*
X132604761Y-117052380D01*
X132795238Y-117052380D01*
X132890476Y-117004761D01*
X132938095Y-116957142D01*
X132985714Y-116861904D01*
X132985714Y-116671428D01*
X132938095Y-116576190D01*
X132890476Y-116528571D01*
X132795238Y-116480952D01*
D14*
%TO.C,R2*%
X141988333Y-132374523D02*
X141565000Y-131769761D01*
X141262619Y-132374523D02*
X141262619Y-131104523D01*
X141746428Y-131104523D01*
X141867380Y-131165000D01*
X141927857Y-131225476D01*
X141988333Y-131346428D01*
X141988333Y-131527857D01*
X141927857Y-131648809D01*
X141867380Y-131709285D01*
X141746428Y-131769761D01*
X141262619Y-131769761D01*
X142472142Y-131225476D02*
X142532619Y-131165000D01*
X142653571Y-131104523D01*
X142955952Y-131104523D01*
X143076904Y-131165000D01*
X143137380Y-131225476D01*
X143197857Y-131346428D01*
X143197857Y-131467380D01*
X143137380Y-131648809D01*
X142411666Y-132374523D01*
X143197857Y-132374523D01*
D15*
%TO.C,TP7*%
X108463095Y-135902380D02*
X109034523Y-135902380D01*
X108748809Y-136902380D02*
X108748809Y-135902380D01*
X109367857Y-136902380D02*
X109367857Y-135902380D01*
X109748809Y-135902380D01*
X109844047Y-135950000D01*
X109891666Y-135997619D01*
X109939285Y-136092857D01*
X109939285Y-136235714D01*
X109891666Y-136330952D01*
X109844047Y-136378571D01*
X109748809Y-136426190D01*
X109367857Y-136426190D01*
X110272619Y-135902380D02*
X110939285Y-135902380D01*
X110510714Y-136902380D01*
D14*
%TO.C,J6*%
X107634316Y-71428213D02*
X107634316Y-72335356D01*
X107573840Y-72516785D01*
X107452888Y-72637737D01*
X107271459Y-72698213D01*
X107150507Y-72698213D01*
X108783364Y-71428213D02*
X108541459Y-71428213D01*
X108420507Y-71488690D01*
X108360030Y-71549166D01*
X108239078Y-71730594D01*
X108178602Y-71972499D01*
X108178602Y-72456309D01*
X108239078Y-72577261D01*
X108299554Y-72637737D01*
X108420507Y-72698213D01*
X108662411Y-72698213D01*
X108783364Y-72637737D01*
X108843840Y-72577261D01*
X108904316Y-72456309D01*
X108904316Y-72153928D01*
X108843840Y-72032975D01*
X108783364Y-71972499D01*
X108662411Y-71912023D01*
X108420507Y-71912023D01*
X108299554Y-71972499D01*
X108239078Y-72032975D01*
X108178602Y-72153928D01*
%TO.C,R17*%
X143374523Y-78066428D02*
X142769761Y-78489761D01*
X143374523Y-78792142D02*
X142104523Y-78792142D01*
X142104523Y-78308333D01*
X142165000Y-78187380D01*
X142225476Y-78126904D01*
X142346428Y-78066428D01*
X142527857Y-78066428D01*
X142648809Y-78126904D01*
X142709285Y-78187380D01*
X142769761Y-78308333D01*
X142769761Y-78792142D01*
X143374523Y-76856904D02*
X143374523Y-77582619D01*
X143374523Y-77219761D02*
X142104523Y-77219761D01*
X142285952Y-77340714D01*
X142406904Y-77461666D01*
X142467380Y-77582619D01*
X142104523Y-76433571D02*
X142104523Y-75586904D01*
X143374523Y-76131190D01*
%TO.C,R10*%
X92274523Y-130191428D02*
X91669761Y-130614761D01*
X92274523Y-130917142D02*
X91004523Y-130917142D01*
X91004523Y-130433333D01*
X91065000Y-130312380D01*
X91125476Y-130251904D01*
X91246428Y-130191428D01*
X91427857Y-130191428D01*
X91548809Y-130251904D01*
X91609285Y-130312380D01*
X91669761Y-130433333D01*
X91669761Y-130917142D01*
X92274523Y-128981904D02*
X92274523Y-129707619D01*
X92274523Y-129344761D02*
X91004523Y-129344761D01*
X91185952Y-129465714D01*
X91306904Y-129586666D01*
X91367380Y-129707619D01*
X91004523Y-128195714D02*
X91004523Y-128074761D01*
X91065000Y-127953809D01*
X91125476Y-127893333D01*
X91246428Y-127832857D01*
X91488333Y-127772380D01*
X91790714Y-127772380D01*
X92032619Y-127832857D01*
X92153571Y-127893333D01*
X92214047Y-127953809D01*
X92274523Y-128074761D01*
X92274523Y-128195714D01*
X92214047Y-128316666D01*
X92153571Y-128377142D01*
X92032619Y-128437619D01*
X91790714Y-128498095D01*
X91488333Y-128498095D01*
X91246428Y-128437619D01*
X91125476Y-128377142D01*
X91065000Y-128316666D01*
X91004523Y-128195714D01*
D15*
%TO.C,TP13*%
X126436904Y-130027380D02*
X127008333Y-130027380D01*
X126722619Y-131027380D02*
X126722619Y-130027380D01*
X127341666Y-131027380D02*
X127341666Y-130027380D01*
X127722619Y-130027380D01*
X127817857Y-130075000D01*
X127865476Y-130122619D01*
X127913095Y-130217857D01*
X127913095Y-130360714D01*
X127865476Y-130455952D01*
X127817857Y-130503571D01*
X127722619Y-130551190D01*
X127341666Y-130551190D01*
X128865476Y-131027380D02*
X128294047Y-131027380D01*
X128579761Y-131027380D02*
X128579761Y-130027380D01*
X128484523Y-130170238D01*
X128389285Y-130265476D01*
X128294047Y-130313095D01*
X129198809Y-130027380D02*
X129817857Y-130027380D01*
X129484523Y-130408333D01*
X129627380Y-130408333D01*
X129722619Y-130455952D01*
X129770238Y-130503571D01*
X129817857Y-130598809D01*
X129817857Y-130836904D01*
X129770238Y-130932142D01*
X129722619Y-130979761D01*
X129627380Y-131027380D01*
X129341666Y-131027380D01*
X129246428Y-130979761D01*
X129198809Y-130932142D01*
D14*
%TO.C,C12*%
X166853571Y-121216428D02*
X166914047Y-121276904D01*
X166974523Y-121458333D01*
X166974523Y-121579285D01*
X166914047Y-121760714D01*
X166793095Y-121881666D01*
X166672142Y-121942142D01*
X166430238Y-122002619D01*
X166248809Y-122002619D01*
X166006904Y-121942142D01*
X165885952Y-121881666D01*
X165765000Y-121760714D01*
X165704523Y-121579285D01*
X165704523Y-121458333D01*
X165765000Y-121276904D01*
X165825476Y-121216428D01*
X166974523Y-120006904D02*
X166974523Y-120732619D01*
X166974523Y-120369761D02*
X165704523Y-120369761D01*
X165885952Y-120490714D01*
X166006904Y-120611666D01*
X166067380Y-120732619D01*
X165825476Y-119523095D02*
X165765000Y-119462619D01*
X165704523Y-119341666D01*
X165704523Y-119039285D01*
X165765000Y-118918333D01*
X165825476Y-118857857D01*
X165946428Y-118797380D01*
X166067380Y-118797380D01*
X166248809Y-118857857D01*
X166974523Y-119583571D01*
X166974523Y-118797380D01*
%TO.C,R22*%
X148983571Y-112174523D02*
X148560238Y-111569761D01*
X148257857Y-112174523D02*
X148257857Y-110904523D01*
X148741666Y-110904523D01*
X148862619Y-110965000D01*
X148923095Y-111025476D01*
X148983571Y-111146428D01*
X148983571Y-111327857D01*
X148923095Y-111448809D01*
X148862619Y-111509285D01*
X148741666Y-111569761D01*
X148257857Y-111569761D01*
X149467380Y-111025476D02*
X149527857Y-110965000D01*
X149648809Y-110904523D01*
X149951190Y-110904523D01*
X150072142Y-110965000D01*
X150132619Y-111025476D01*
X150193095Y-111146428D01*
X150193095Y-111267380D01*
X150132619Y-111448809D01*
X149406904Y-112174523D01*
X150193095Y-112174523D01*
X150676904Y-111025476D02*
X150737380Y-110965000D01*
X150858333Y-110904523D01*
X151160714Y-110904523D01*
X151281666Y-110965000D01*
X151342142Y-111025476D01*
X151402619Y-111146428D01*
X151402619Y-111267380D01*
X151342142Y-111448809D01*
X150616428Y-112174523D01*
X151402619Y-112174523D01*
%TO.C,R15*%
X103383571Y-127674523D02*
X102960238Y-127069761D01*
X102657857Y-127674523D02*
X102657857Y-126404523D01*
X103141666Y-126404523D01*
X103262619Y-126465000D01*
X103323095Y-126525476D01*
X103383571Y-126646428D01*
X103383571Y-126827857D01*
X103323095Y-126948809D01*
X103262619Y-127009285D01*
X103141666Y-127069761D01*
X102657857Y-127069761D01*
X104593095Y-127674523D02*
X103867380Y-127674523D01*
X104230238Y-127674523D02*
X104230238Y-126404523D01*
X104109285Y-126585952D01*
X103988333Y-126706904D01*
X103867380Y-126767380D01*
X105742142Y-126404523D02*
X105137380Y-126404523D01*
X105076904Y-127009285D01*
X105137380Y-126948809D01*
X105258333Y-126888333D01*
X105560714Y-126888333D01*
X105681666Y-126948809D01*
X105742142Y-127009285D01*
X105802619Y-127130238D01*
X105802619Y-127432619D01*
X105742142Y-127553571D01*
X105681666Y-127614047D01*
X105560714Y-127674523D01*
X105258333Y-127674523D01*
X105137380Y-127614047D01*
X105076904Y-127553571D01*
%TO.C,R16*%
X105174523Y-78116428D02*
X104569761Y-78539761D01*
X105174523Y-78842142D02*
X103904523Y-78842142D01*
X103904523Y-78358333D01*
X103965000Y-78237380D01*
X104025476Y-78176904D01*
X104146428Y-78116428D01*
X104327857Y-78116428D01*
X104448809Y-78176904D01*
X104509285Y-78237380D01*
X104569761Y-78358333D01*
X104569761Y-78842142D01*
X105174523Y-76906904D02*
X105174523Y-77632619D01*
X105174523Y-77269761D02*
X103904523Y-77269761D01*
X104085952Y-77390714D01*
X104206904Y-77511666D01*
X104267380Y-77632619D01*
X103904523Y-75818333D02*
X103904523Y-76060238D01*
X103965000Y-76181190D01*
X104025476Y-76241666D01*
X104206904Y-76362619D01*
X104448809Y-76423095D01*
X104932619Y-76423095D01*
X105053571Y-76362619D01*
X105114047Y-76302142D01*
X105174523Y-76181190D01*
X105174523Y-75939285D01*
X105114047Y-75818333D01*
X105053571Y-75757857D01*
X104932619Y-75697380D01*
X104630238Y-75697380D01*
X104509285Y-75757857D01*
X104448809Y-75818333D01*
X104388333Y-75939285D01*
X104388333Y-76181190D01*
X104448809Y-76302142D01*
X104509285Y-76362619D01*
X104630238Y-76423095D01*
D15*
%TO.C,TP4*%
X143838095Y-127752380D02*
X144409523Y-127752380D01*
X144123809Y-128752380D02*
X144123809Y-127752380D01*
X144742857Y-128752380D02*
X144742857Y-127752380D01*
X145123809Y-127752380D01*
X145219047Y-127800000D01*
X145266666Y-127847619D01*
X145314285Y-127942857D01*
X145314285Y-128085714D01*
X145266666Y-128180952D01*
X145219047Y-128228571D01*
X145123809Y-128276190D01*
X144742857Y-128276190D01*
X146171428Y-128085714D02*
X146171428Y-128752380D01*
X145933333Y-127704761D02*
X145695238Y-128419047D01*
X146314285Y-128419047D01*
%TO.C,TP8*%
X177738095Y-138652380D02*
X178309523Y-138652380D01*
X178023809Y-139652380D02*
X178023809Y-138652380D01*
X178642857Y-139652380D02*
X178642857Y-138652380D01*
X179023809Y-138652380D01*
X179119047Y-138700000D01*
X179166666Y-138747619D01*
X179214285Y-138842857D01*
X179214285Y-138985714D01*
X179166666Y-139080952D01*
X179119047Y-139128571D01*
X179023809Y-139176190D01*
X178642857Y-139176190D01*
X179785714Y-139080952D02*
X179690476Y-139033333D01*
X179642857Y-138985714D01*
X179595238Y-138890476D01*
X179595238Y-138842857D01*
X179642857Y-138747619D01*
X179690476Y-138700000D01*
X179785714Y-138652380D01*
X179976190Y-138652380D01*
X180071428Y-138700000D01*
X180119047Y-138747619D01*
X180166666Y-138842857D01*
X180166666Y-138890476D01*
X180119047Y-138985714D01*
X180071428Y-139033333D01*
X179976190Y-139080952D01*
X179785714Y-139080952D01*
X179690476Y-139128571D01*
X179642857Y-139176190D01*
X179595238Y-139271428D01*
X179595238Y-139461904D01*
X179642857Y-139557142D01*
X179690476Y-139604761D01*
X179785714Y-139652380D01*
X179976190Y-139652380D01*
X180071428Y-139604761D01*
X180119047Y-139557142D01*
X180166666Y-139461904D01*
X180166666Y-139271428D01*
X180119047Y-139176190D01*
X180071428Y-139128571D01*
X179976190Y-139080952D01*
D14*
%TO.C,D4*%
X111187619Y-120374523D02*
X111187619Y-119104523D01*
X111490000Y-119104523D01*
X111671428Y-119165000D01*
X111792380Y-119285952D01*
X111852857Y-119406904D01*
X111913333Y-119648809D01*
X111913333Y-119830238D01*
X111852857Y-120072142D01*
X111792380Y-120193095D01*
X111671428Y-120314047D01*
X111490000Y-120374523D01*
X111187619Y-120374523D01*
X113001904Y-119527857D02*
X113001904Y-120374523D01*
X112699523Y-119044047D02*
X112397142Y-119951190D01*
X113183333Y-119951190D01*
D15*
%TO.C,TP11*%
X185661904Y-122652380D02*
X186233333Y-122652380D01*
X185947619Y-123652380D02*
X185947619Y-122652380D01*
X186566666Y-123652380D02*
X186566666Y-122652380D01*
X186947619Y-122652380D01*
X187042857Y-122700000D01*
X187090476Y-122747619D01*
X187138095Y-122842857D01*
X187138095Y-122985714D01*
X187090476Y-123080952D01*
X187042857Y-123128571D01*
X186947619Y-123176190D01*
X186566666Y-123176190D01*
X188090476Y-123652380D02*
X187519047Y-123652380D01*
X187804761Y-123652380D02*
X187804761Y-122652380D01*
X187709523Y-122795238D01*
X187614285Y-122890476D01*
X187519047Y-122938095D01*
X189042857Y-123652380D02*
X188471428Y-123652380D01*
X188757142Y-123652380D02*
X188757142Y-122652380D01*
X188661904Y-122795238D01*
X188566666Y-122890476D01*
X188471428Y-122938095D01*
D14*
%TO.C,R13*%
X110183571Y-130674523D02*
X109760238Y-130069761D01*
X109457857Y-130674523D02*
X109457857Y-129404523D01*
X109941666Y-129404523D01*
X110062619Y-129465000D01*
X110123095Y-129525476D01*
X110183571Y-129646428D01*
X110183571Y-129827857D01*
X110123095Y-129948809D01*
X110062619Y-130009285D01*
X109941666Y-130069761D01*
X109457857Y-130069761D01*
X111393095Y-130674523D02*
X110667380Y-130674523D01*
X111030238Y-130674523D02*
X111030238Y-129404523D01*
X110909285Y-129585952D01*
X110788333Y-129706904D01*
X110667380Y-129767380D01*
X111816428Y-129404523D02*
X112602619Y-129404523D01*
X112179285Y-129888333D01*
X112360714Y-129888333D01*
X112481666Y-129948809D01*
X112542142Y-130009285D01*
X112602619Y-130130238D01*
X112602619Y-130432619D01*
X112542142Y-130553571D01*
X112481666Y-130614047D01*
X112360714Y-130674523D01*
X111997857Y-130674523D01*
X111876904Y-130614047D01*
X111816428Y-130553571D01*
%TO.C,R21*%
X148983571Y-114074523D02*
X148560238Y-113469761D01*
X148257857Y-114074523D02*
X148257857Y-112804523D01*
X148741666Y-112804523D01*
X148862619Y-112865000D01*
X148923095Y-112925476D01*
X148983571Y-113046428D01*
X148983571Y-113227857D01*
X148923095Y-113348809D01*
X148862619Y-113409285D01*
X148741666Y-113469761D01*
X148257857Y-113469761D01*
X149467380Y-112925476D02*
X149527857Y-112865000D01*
X149648809Y-112804523D01*
X149951190Y-112804523D01*
X150072142Y-112865000D01*
X150132619Y-112925476D01*
X150193095Y-113046428D01*
X150193095Y-113167380D01*
X150132619Y-113348809D01*
X149406904Y-114074523D01*
X150193095Y-114074523D01*
X151402619Y-114074523D02*
X150676904Y-114074523D01*
X151039761Y-114074523D02*
X151039761Y-112804523D01*
X150918809Y-112985952D01*
X150797857Y-113106904D01*
X150676904Y-113167380D01*
%TO.C,C13*%
X162983571Y-116453571D02*
X162923095Y-116514047D01*
X162741666Y-116574523D01*
X162620714Y-116574523D01*
X162439285Y-116514047D01*
X162318333Y-116393095D01*
X162257857Y-116272142D01*
X162197380Y-116030238D01*
X162197380Y-115848809D01*
X162257857Y-115606904D01*
X162318333Y-115485952D01*
X162439285Y-115365000D01*
X162620714Y-115304523D01*
X162741666Y-115304523D01*
X162923095Y-115365000D01*
X162983571Y-115425476D01*
X164193095Y-116574523D02*
X163467380Y-116574523D01*
X163830238Y-116574523D02*
X163830238Y-115304523D01*
X163709285Y-115485952D01*
X163588333Y-115606904D01*
X163467380Y-115667380D01*
X164616428Y-115304523D02*
X165402619Y-115304523D01*
X164979285Y-115788333D01*
X165160714Y-115788333D01*
X165281666Y-115848809D01*
X165342142Y-115909285D01*
X165402619Y-116030238D01*
X165402619Y-116332619D01*
X165342142Y-116453571D01*
X165281666Y-116514047D01*
X165160714Y-116574523D01*
X164797857Y-116574523D01*
X164676904Y-116514047D01*
X164616428Y-116453571D01*
%TO.C,C8*%
X134653571Y-77911666D02*
X134714047Y-77972142D01*
X134774523Y-78153571D01*
X134774523Y-78274523D01*
X134714047Y-78455952D01*
X134593095Y-78576904D01*
X134472142Y-78637380D01*
X134230238Y-78697857D01*
X134048809Y-78697857D01*
X133806904Y-78637380D01*
X133685952Y-78576904D01*
X133565000Y-78455952D01*
X133504523Y-78274523D01*
X133504523Y-78153571D01*
X133565000Y-77972142D01*
X133625476Y-77911666D01*
X134048809Y-77185952D02*
X133988333Y-77306904D01*
X133927857Y-77367380D01*
X133806904Y-77427857D01*
X133746428Y-77427857D01*
X133625476Y-77367380D01*
X133565000Y-77306904D01*
X133504523Y-77185952D01*
X133504523Y-76944047D01*
X133565000Y-76823095D01*
X133625476Y-76762619D01*
X133746428Y-76702142D01*
X133806904Y-76702142D01*
X133927857Y-76762619D01*
X133988333Y-76823095D01*
X134048809Y-76944047D01*
X134048809Y-77185952D01*
X134109285Y-77306904D01*
X134169761Y-77367380D01*
X134290714Y-77427857D01*
X134532619Y-77427857D01*
X134653571Y-77367380D01*
X134714047Y-77306904D01*
X134774523Y-77185952D01*
X134774523Y-76944047D01*
X134714047Y-76823095D01*
X134653571Y-76762619D01*
X134532619Y-76702142D01*
X134290714Y-76702142D01*
X134169761Y-76762619D01*
X134109285Y-76823095D01*
X134048809Y-76944047D01*
%TO.C,C1*%
X148688333Y-128953571D02*
X148627857Y-129014047D01*
X148446428Y-129074523D01*
X148325476Y-129074523D01*
X148144047Y-129014047D01*
X148023095Y-128893095D01*
X147962619Y-128772142D01*
X147902142Y-128530238D01*
X147902142Y-128348809D01*
X147962619Y-128106904D01*
X148023095Y-127985952D01*
X148144047Y-127865000D01*
X148325476Y-127804523D01*
X148446428Y-127804523D01*
X148627857Y-127865000D01*
X148688333Y-127925476D01*
X149897857Y-129074523D02*
X149172142Y-129074523D01*
X149535000Y-129074523D02*
X149535000Y-127804523D01*
X149414047Y-127985952D01*
X149293095Y-128106904D01*
X149172142Y-128167380D01*
D15*
%TO.C,U2*%
X106938095Y-81052380D02*
X106938095Y-81861904D01*
X106985714Y-81957142D01*
X107033333Y-82004761D01*
X107128571Y-82052380D01*
X107319047Y-82052380D01*
X107414285Y-82004761D01*
X107461904Y-81957142D01*
X107509523Y-81861904D01*
X107509523Y-81052380D01*
X107938095Y-81147619D02*
X107985714Y-81100000D01*
X108080952Y-81052380D01*
X108319047Y-81052380D01*
X108414285Y-81100000D01*
X108461904Y-81147619D01*
X108509523Y-81242857D01*
X108509523Y-81338095D01*
X108461904Y-81480952D01*
X107890476Y-82052380D01*
X108509523Y-82052380D01*
%TO.C,TP1*%
X143663095Y-135202380D02*
X144234523Y-135202380D01*
X143948809Y-136202380D02*
X143948809Y-135202380D01*
X144567857Y-136202380D02*
X144567857Y-135202380D01*
X144948809Y-135202380D01*
X145044047Y-135250000D01*
X145091666Y-135297619D01*
X145139285Y-135392857D01*
X145139285Y-135535714D01*
X145091666Y-135630952D01*
X145044047Y-135678571D01*
X144948809Y-135726190D01*
X144567857Y-135726190D01*
X146091666Y-136202380D02*
X145520238Y-136202380D01*
X145805952Y-136202380D02*
X145805952Y-135202380D01*
X145710714Y-135345238D01*
X145615476Y-135440476D01*
X145520238Y-135488095D01*
D14*
%TO.C,Q1*%
X146279047Y-130495476D02*
X146158095Y-130435000D01*
X146037142Y-130314047D01*
X145855714Y-130132619D01*
X145734761Y-130072142D01*
X145613809Y-130072142D01*
X145674285Y-130374523D02*
X145553333Y-130314047D01*
X145432380Y-130193095D01*
X145371904Y-129951190D01*
X145371904Y-129527857D01*
X145432380Y-129285952D01*
X145553333Y-129165000D01*
X145674285Y-129104523D01*
X145916190Y-129104523D01*
X146037142Y-129165000D01*
X146158095Y-129285952D01*
X146218571Y-129527857D01*
X146218571Y-129951190D01*
X146158095Y-130193095D01*
X146037142Y-130314047D01*
X145916190Y-130374523D01*
X145674285Y-130374523D01*
X147428095Y-130374523D02*
X146702380Y-130374523D01*
X147065238Y-130374523D02*
X147065238Y-129104523D01*
X146944285Y-129285952D01*
X146823333Y-129406904D01*
X146702380Y-129467380D01*
D15*
%TO.C,TP5*%
X154738095Y-131552380D02*
X155309523Y-131552380D01*
X155023809Y-132552380D02*
X155023809Y-131552380D01*
X155642857Y-132552380D02*
X155642857Y-131552380D01*
X156023809Y-131552380D01*
X156119047Y-131600000D01*
X156166666Y-131647619D01*
X156214285Y-131742857D01*
X156214285Y-131885714D01*
X156166666Y-131980952D01*
X156119047Y-132028571D01*
X156023809Y-132076190D01*
X155642857Y-132076190D01*
X157119047Y-131552380D02*
X156642857Y-131552380D01*
X156595238Y-132028571D01*
X156642857Y-131980952D01*
X156738095Y-131933333D01*
X156976190Y-131933333D01*
X157071428Y-131980952D01*
X157119047Y-132028571D01*
X157166666Y-132123809D01*
X157166666Y-132361904D01*
X157119047Y-132457142D01*
X157071428Y-132504761D01*
X156976190Y-132552380D01*
X156738095Y-132552380D01*
X156642857Y-132504761D01*
X156595238Y-132457142D01*
%TO.C,D5*%
X114377380Y-132438095D02*
X113377380Y-132438095D01*
X113377380Y-132200000D01*
X113425000Y-132057142D01*
X113520238Y-131961904D01*
X113615476Y-131914285D01*
X113805952Y-131866666D01*
X113948809Y-131866666D01*
X114139285Y-131914285D01*
X114234523Y-131961904D01*
X114329761Y-132057142D01*
X114377380Y-132200000D01*
X114377380Y-132438095D01*
X113377380Y-130961904D02*
X113377380Y-131438095D01*
X113853571Y-131485714D01*
X113805952Y-131438095D01*
X113758333Y-131342857D01*
X113758333Y-131104761D01*
X113805952Y-131009523D01*
X113853571Y-130961904D01*
X113948809Y-130914285D01*
X114186904Y-130914285D01*
X114282142Y-130961904D01*
X114329761Y-131009523D01*
X114377380Y-131104761D01*
X114377380Y-131342857D01*
X114329761Y-131438095D01*
X114282142Y-131485714D01*
D16*
%TO.C,U3*%
X120274071Y-81212657D02*
X121199357Y-81212657D01*
X121308214Y-81158228D01*
X121362642Y-81103800D01*
X121417071Y-80994942D01*
X121417071Y-80777228D01*
X121362642Y-80668371D01*
X121308214Y-80613942D01*
X121199357Y-80559514D01*
X120274071Y-80559514D01*
X120274071Y-80124085D02*
X120274071Y-79416514D01*
X120709500Y-79797514D01*
X120709500Y-79634228D01*
X120763928Y-79525371D01*
X120818357Y-79470942D01*
X120927214Y-79416514D01*
X121199357Y-79416514D01*
X121308214Y-79470942D01*
X121362642Y-79525371D01*
X121417071Y-79634228D01*
X121417071Y-79960800D01*
X121362642Y-80069657D01*
X121308214Y-80124085D01*
D13*
%TO.C,C9*%
X114555000Y-128296428D02*
X114542142Y-128309285D01*
X114503571Y-128322142D01*
X114477857Y-128322142D01*
X114439285Y-128309285D01*
X114413571Y-128283571D01*
X114400714Y-128257857D01*
X114387857Y-128206428D01*
X114387857Y-128167857D01*
X114400714Y-128116428D01*
X114413571Y-128090714D01*
X114439285Y-128065000D01*
X114477857Y-128052142D01*
X114503571Y-128052142D01*
X114542142Y-128065000D01*
X114555000Y-128077857D01*
X114683571Y-128322142D02*
X114735000Y-128322142D01*
X114760714Y-128309285D01*
X114773571Y-128296428D01*
X114799285Y-128257857D01*
X114812142Y-128206428D01*
X114812142Y-128103571D01*
X114799285Y-128077857D01*
X114786428Y-128065000D01*
X114760714Y-128052142D01*
X114709285Y-128052142D01*
X114683571Y-128065000D01*
X114670714Y-128077857D01*
X114657857Y-128103571D01*
X114657857Y-128167857D01*
X114670714Y-128193571D01*
X114683571Y-128206428D01*
X114709285Y-128219285D01*
X114760714Y-128219285D01*
X114786428Y-128206428D01*
X114799285Y-128193571D01*
X114812142Y-128167857D01*
D14*
%TO.C,C3*%
X97953571Y-118211666D02*
X98014047Y-118272142D01*
X98074523Y-118453571D01*
X98074523Y-118574523D01*
X98014047Y-118755952D01*
X97893095Y-118876904D01*
X97772142Y-118937380D01*
X97530238Y-118997857D01*
X97348809Y-118997857D01*
X97106904Y-118937380D01*
X96985952Y-118876904D01*
X96865000Y-118755952D01*
X96804523Y-118574523D01*
X96804523Y-118453571D01*
X96865000Y-118272142D01*
X96925476Y-118211666D01*
X96804523Y-117788333D02*
X96804523Y-117002142D01*
X97288333Y-117425476D01*
X97288333Y-117244047D01*
X97348809Y-117123095D01*
X97409285Y-117062619D01*
X97530238Y-117002142D01*
X97832619Y-117002142D01*
X97953571Y-117062619D01*
X98014047Y-117123095D01*
X98074523Y-117244047D01*
X98074523Y-117606904D01*
X98014047Y-117727857D01*
X97953571Y-117788333D01*
%TO.C,R12*%
X110283571Y-132274523D02*
X109860238Y-131669761D01*
X109557857Y-132274523D02*
X109557857Y-131004523D01*
X110041666Y-131004523D01*
X110162619Y-131065000D01*
X110223095Y-131125476D01*
X110283571Y-131246428D01*
X110283571Y-131427857D01*
X110223095Y-131548809D01*
X110162619Y-131609285D01*
X110041666Y-131669761D01*
X109557857Y-131669761D01*
X111493095Y-132274523D02*
X110767380Y-132274523D01*
X111130238Y-132274523D02*
X111130238Y-131004523D01*
X111009285Y-131185952D01*
X110888333Y-131306904D01*
X110767380Y-131367380D01*
X111976904Y-131125476D02*
X112037380Y-131065000D01*
X112158333Y-131004523D01*
X112460714Y-131004523D01*
X112581666Y-131065000D01*
X112642142Y-131125476D01*
X112702619Y-131246428D01*
X112702619Y-131367380D01*
X112642142Y-131548809D01*
X111916428Y-132274523D01*
X112702619Y-132274523D01*
%TO.C,R18*%
X181383571Y-116474523D02*
X180960238Y-115869761D01*
X180657857Y-116474523D02*
X180657857Y-115204523D01*
X181141666Y-115204523D01*
X181262619Y-115265000D01*
X181323095Y-115325476D01*
X181383571Y-115446428D01*
X181383571Y-115627857D01*
X181323095Y-115748809D01*
X181262619Y-115809285D01*
X181141666Y-115869761D01*
X180657857Y-115869761D01*
X182593095Y-116474523D02*
X181867380Y-116474523D01*
X182230238Y-116474523D02*
X182230238Y-115204523D01*
X182109285Y-115385952D01*
X181988333Y-115506904D01*
X181867380Y-115567380D01*
X183318809Y-115748809D02*
X183197857Y-115688333D01*
X183137380Y-115627857D01*
X183076904Y-115506904D01*
X183076904Y-115446428D01*
X183137380Y-115325476D01*
X183197857Y-115265000D01*
X183318809Y-115204523D01*
X183560714Y-115204523D01*
X183681666Y-115265000D01*
X183742142Y-115325476D01*
X183802619Y-115446428D01*
X183802619Y-115506904D01*
X183742142Y-115627857D01*
X183681666Y-115688333D01*
X183560714Y-115748809D01*
X183318809Y-115748809D01*
X183197857Y-115809285D01*
X183137380Y-115869761D01*
X183076904Y-115990714D01*
X183076904Y-116232619D01*
X183137380Y-116353571D01*
X183197857Y-116414047D01*
X183318809Y-116474523D01*
X183560714Y-116474523D01*
X183681666Y-116414047D01*
X183742142Y-116353571D01*
X183802619Y-116232619D01*
X183802619Y-115990714D01*
X183742142Y-115869761D01*
X183681666Y-115809285D01*
X183560714Y-115748809D01*
%TO.C,R4*%
X139038333Y-129674523D02*
X138615000Y-129069761D01*
X138312619Y-129674523D02*
X138312619Y-128404523D01*
X138796428Y-128404523D01*
X138917380Y-128465000D01*
X138977857Y-128525476D01*
X139038333Y-128646428D01*
X139038333Y-128827857D01*
X138977857Y-128948809D01*
X138917380Y-129009285D01*
X138796428Y-129069761D01*
X138312619Y-129069761D01*
X140126904Y-128827857D02*
X140126904Y-129674523D01*
X139824523Y-128344047D02*
X139522142Y-129251190D01*
X140308333Y-129251190D01*
D15*
%TO.C,TP3*%
X127638095Y-135577380D02*
X128209523Y-135577380D01*
X127923809Y-136577380D02*
X127923809Y-135577380D01*
X128542857Y-136577380D02*
X128542857Y-135577380D01*
X128923809Y-135577380D01*
X129019047Y-135625000D01*
X129066666Y-135672619D01*
X129114285Y-135767857D01*
X129114285Y-135910714D01*
X129066666Y-136005952D01*
X129019047Y-136053571D01*
X128923809Y-136101190D01*
X128542857Y-136101190D01*
X129447619Y-135577380D02*
X130066666Y-135577380D01*
X129733333Y-135958333D01*
X129876190Y-135958333D01*
X129971428Y-136005952D01*
X130019047Y-136053571D01*
X130066666Y-136148809D01*
X130066666Y-136386904D01*
X130019047Y-136482142D01*
X129971428Y-136529761D01*
X129876190Y-136577380D01*
X129590476Y-136577380D01*
X129495238Y-136529761D01*
X129447619Y-136482142D01*
%TO.C,TP10*%
X185461904Y-114052380D02*
X186033333Y-114052380D01*
X185747619Y-115052380D02*
X185747619Y-114052380D01*
X186366666Y-115052380D02*
X186366666Y-114052380D01*
X186747619Y-114052380D01*
X186842857Y-114100000D01*
X186890476Y-114147619D01*
X186938095Y-114242857D01*
X186938095Y-114385714D01*
X186890476Y-114480952D01*
X186842857Y-114528571D01*
X186747619Y-114576190D01*
X186366666Y-114576190D01*
X187890476Y-115052380D02*
X187319047Y-115052380D01*
X187604761Y-115052380D02*
X187604761Y-114052380D01*
X187509523Y-114195238D01*
X187414285Y-114290476D01*
X187319047Y-114338095D01*
X188509523Y-114052380D02*
X188604761Y-114052380D01*
X188700000Y-114100000D01*
X188747619Y-114147619D01*
X188795238Y-114242857D01*
X188842857Y-114433333D01*
X188842857Y-114671428D01*
X188795238Y-114861904D01*
X188747619Y-114957142D01*
X188700000Y-115004761D01*
X188604761Y-115052380D01*
X188509523Y-115052380D01*
X188414285Y-115004761D01*
X188366666Y-114957142D01*
X188319047Y-114861904D01*
X188271428Y-114671428D01*
X188271428Y-114433333D01*
X188319047Y-114242857D01*
X188366666Y-114147619D01*
X188414285Y-114100000D01*
X188509523Y-114052380D01*
D14*
%TO.C,J7*%
X116709316Y-71378213D02*
X116709316Y-72285356D01*
X116648840Y-72466785D01*
X116527888Y-72587737D01*
X116346459Y-72648213D01*
X116225507Y-72648213D01*
X117193126Y-71378213D02*
X118039792Y-71378213D01*
X117495507Y-72648213D01*
D13*
%TO.C,R11*%
X108622142Y-120973571D02*
X108493571Y-121063571D01*
X108622142Y-121127857D02*
X108352142Y-121127857D01*
X108352142Y-121025000D01*
X108365000Y-120999285D01*
X108377857Y-120986428D01*
X108403571Y-120973571D01*
X108442142Y-120973571D01*
X108467857Y-120986428D01*
X108480714Y-120999285D01*
X108493571Y-121025000D01*
X108493571Y-121127857D01*
X108622142Y-120716428D02*
X108622142Y-120870714D01*
X108622142Y-120793571D02*
X108352142Y-120793571D01*
X108390714Y-120819285D01*
X108416428Y-120845000D01*
X108429285Y-120870714D01*
X108622142Y-120459285D02*
X108622142Y-120613571D01*
X108622142Y-120536428D02*
X108352142Y-120536428D01*
X108390714Y-120562142D01*
X108416428Y-120587857D01*
X108429285Y-120613571D01*
D14*
%TO.C,J8*%
X131634316Y-71478213D02*
X131634316Y-72385356D01*
X131573840Y-72566785D01*
X131452888Y-72687737D01*
X131271459Y-72748213D01*
X131150507Y-72748213D01*
X132420507Y-72022499D02*
X132299554Y-71962023D01*
X132239078Y-71901547D01*
X132178602Y-71780594D01*
X132178602Y-71720118D01*
X132239078Y-71599166D01*
X132299554Y-71538690D01*
X132420507Y-71478213D01*
X132662411Y-71478213D01*
X132783364Y-71538690D01*
X132843840Y-71599166D01*
X132904316Y-71720118D01*
X132904316Y-71780594D01*
X132843840Y-71901547D01*
X132783364Y-71962023D01*
X132662411Y-72022499D01*
X132420507Y-72022499D01*
X132299554Y-72082975D01*
X132239078Y-72143451D01*
X132178602Y-72264404D01*
X132178602Y-72506309D01*
X132239078Y-72627261D01*
X132299554Y-72687737D01*
X132420507Y-72748213D01*
X132662411Y-72748213D01*
X132783364Y-72687737D01*
X132843840Y-72627261D01*
X132904316Y-72506309D01*
X132904316Y-72264404D01*
X132843840Y-72143451D01*
X132783364Y-72082975D01*
X132662411Y-72022499D01*
%TO.C,R14*%
X117783571Y-127374523D02*
X117360238Y-126769761D01*
X117057857Y-127374523D02*
X117057857Y-126104523D01*
X117541666Y-126104523D01*
X117662619Y-126165000D01*
X117723095Y-126225476D01*
X117783571Y-126346428D01*
X117783571Y-126527857D01*
X117723095Y-126648809D01*
X117662619Y-126709285D01*
X117541666Y-126769761D01*
X117057857Y-126769761D01*
X118993095Y-127374523D02*
X118267380Y-127374523D01*
X118630238Y-127374523D02*
X118630238Y-126104523D01*
X118509285Y-126285952D01*
X118388333Y-126406904D01*
X118267380Y-126467380D01*
X120081666Y-126527857D02*
X120081666Y-127374523D01*
X119779285Y-126044047D02*
X119476904Y-126951190D01*
X120263095Y-126951190D01*
D15*
%TO.C,C11*%
X182657142Y-91357142D02*
X182609523Y-91404761D01*
X182466666Y-91452380D01*
X182371428Y-91452380D01*
X182228571Y-91404761D01*
X182133333Y-91309523D01*
X182085714Y-91214285D01*
X182038095Y-91023809D01*
X182038095Y-90880952D01*
X182085714Y-90690476D01*
X182133333Y-90595238D01*
X182228571Y-90500000D01*
X182371428Y-90452380D01*
X182466666Y-90452380D01*
X182609523Y-90500000D01*
X182657142Y-90547619D01*
X183609523Y-91452380D02*
X183038095Y-91452380D01*
X183323809Y-91452380D02*
X183323809Y-90452380D01*
X183228571Y-90595238D01*
X183133333Y-90690476D01*
X183038095Y-90738095D01*
X184561904Y-91452380D02*
X183990476Y-91452380D01*
X184276190Y-91452380D02*
X184276190Y-90452380D01*
X184180952Y-90595238D01*
X184085714Y-90690476D01*
X183990476Y-90738095D01*
D13*
%TO.C,R3*%
X128955000Y-138922142D02*
X128865000Y-138793571D01*
X128800714Y-138922142D02*
X128800714Y-138652142D01*
X128903571Y-138652142D01*
X128929285Y-138665000D01*
X128942142Y-138677857D01*
X128955000Y-138703571D01*
X128955000Y-138742142D01*
X128942142Y-138767857D01*
X128929285Y-138780714D01*
X128903571Y-138793571D01*
X128800714Y-138793571D01*
X129045000Y-138652142D02*
X129212142Y-138652142D01*
X129122142Y-138755000D01*
X129160714Y-138755000D01*
X129186428Y-138767857D01*
X129199285Y-138780714D01*
X129212142Y-138806428D01*
X129212142Y-138870714D01*
X129199285Y-138896428D01*
X129186428Y-138909285D01*
X129160714Y-138922142D01*
X129083571Y-138922142D01*
X129057857Y-138909285D01*
X129045000Y-138896428D01*
D14*
%TO.C,IC2*%
X121460238Y-131374523D02*
X121460238Y-130104523D01*
X122790714Y-131253571D02*
X122730238Y-131314047D01*
X122548809Y-131374523D01*
X122427857Y-131374523D01*
X122246428Y-131314047D01*
X122125476Y-131193095D01*
X122065000Y-131072142D01*
X122004523Y-130830238D01*
X122004523Y-130648809D01*
X122065000Y-130406904D01*
X122125476Y-130285952D01*
X122246428Y-130165000D01*
X122427857Y-130104523D01*
X122548809Y-130104523D01*
X122730238Y-130165000D01*
X122790714Y-130225476D01*
X123274523Y-130225476D02*
X123335000Y-130165000D01*
X123455952Y-130104523D01*
X123758333Y-130104523D01*
X123879285Y-130165000D01*
X123939761Y-130225476D01*
X124000238Y-130346428D01*
X124000238Y-130467380D01*
X123939761Y-130648809D01*
X123214047Y-131374523D01*
X124000238Y-131374523D01*
%TO.C,R9*%
X98274523Y-121311666D02*
X97669761Y-121735000D01*
X98274523Y-122037380D02*
X97004523Y-122037380D01*
X97004523Y-121553571D01*
X97065000Y-121432619D01*
X97125476Y-121372142D01*
X97246428Y-121311666D01*
X97427857Y-121311666D01*
X97548809Y-121372142D01*
X97609285Y-121432619D01*
X97669761Y-121553571D01*
X97669761Y-122037380D01*
X98274523Y-120706904D02*
X98274523Y-120465000D01*
X98214047Y-120344047D01*
X98153571Y-120283571D01*
X97972142Y-120162619D01*
X97730238Y-120102142D01*
X97246428Y-120102142D01*
X97125476Y-120162619D01*
X97065000Y-120223095D01*
X97004523Y-120344047D01*
X97004523Y-120585952D01*
X97065000Y-120706904D01*
X97125476Y-120767380D01*
X97246428Y-120827857D01*
X97548809Y-120827857D01*
X97669761Y-120767380D01*
X97730238Y-120706904D01*
X97790714Y-120585952D01*
X97790714Y-120344047D01*
X97730238Y-120223095D01*
X97669761Y-120162619D01*
X97548809Y-120102142D01*
%TO.C,J9*%
X140334316Y-71528213D02*
X140334316Y-72435356D01*
X140273840Y-72616785D01*
X140152888Y-72737737D01*
X139971459Y-72798213D01*
X139850507Y-72798213D01*
X140999554Y-72798213D02*
X141241459Y-72798213D01*
X141362411Y-72737737D01*
X141422888Y-72677261D01*
X141543840Y-72495832D01*
X141604316Y-72253928D01*
X141604316Y-71770118D01*
X141543840Y-71649166D01*
X141483364Y-71588690D01*
X141362411Y-71528213D01*
X141120507Y-71528213D01*
X140999554Y-71588690D01*
X140939078Y-71649166D01*
X140878602Y-71770118D01*
X140878602Y-72072499D01*
X140939078Y-72193451D01*
X140999554Y-72253928D01*
X141120507Y-72314404D01*
X141362411Y-72314404D01*
X141483364Y-72253928D01*
X141543840Y-72193451D01*
X141604316Y-72072499D01*
D15*
%TO.C,TP6*%
X102863095Y-130702380D02*
X103434523Y-130702380D01*
X103148809Y-131702380D02*
X103148809Y-130702380D01*
X103767857Y-131702380D02*
X103767857Y-130702380D01*
X104148809Y-130702380D01*
X104244047Y-130750000D01*
X104291666Y-130797619D01*
X104339285Y-130892857D01*
X104339285Y-131035714D01*
X104291666Y-131130952D01*
X104244047Y-131178571D01*
X104148809Y-131226190D01*
X103767857Y-131226190D01*
X105196428Y-130702380D02*
X105005952Y-130702380D01*
X104910714Y-130750000D01*
X104863095Y-130797619D01*
X104767857Y-130940476D01*
X104720238Y-131130952D01*
X104720238Y-131511904D01*
X104767857Y-131607142D01*
X104815476Y-131654761D01*
X104910714Y-131702380D01*
X105101190Y-131702380D01*
X105196428Y-131654761D01*
X105244047Y-131607142D01*
X105291666Y-131511904D01*
X105291666Y-131273809D01*
X105244047Y-131178571D01*
X105196428Y-131130952D01*
X105101190Y-131083333D01*
X104910714Y-131083333D01*
X104815476Y-131130952D01*
X104767857Y-131178571D01*
X104720238Y-131273809D01*
D17*
%TO.C,R5*%
X156588000Y-135325000D02*
X155212000Y-135325000D01*
%TO.C,D3*%
X111175000Y-116900000D02*
X108875000Y-116900000D01*
X108875000Y-116900000D02*
X108875000Y-118550000D01*
X108875000Y-118550000D02*
X111175000Y-118550000D01*
%TO.C,R8*%
X104925000Y-116100000D02*
X104925000Y-115500000D01*
D18*
%TO.C,D1*%
X143000000Y-136425000D02*
X143000000Y-138975000D01*
X141300000Y-136425000D02*
X141300000Y-138975000D01*
X143000000Y-136425000D02*
X141300000Y-136425000D01*
D19*
%TO.C,BT1*%
X175500000Y-94225000D02*
X175500000Y-114875000D01*
X98450000Y-114875000D02*
X98450000Y-94225000D01*
X98450000Y-94225000D02*
X175500000Y-94225000D01*
X175500000Y-114875000D02*
X98450000Y-114875000D01*
D18*
%TO.C,TP2*%
X153250000Y-136675000D02*
G75*
G03*
X153250000Y-136675000I-1200000J0D01*
G01*
D17*
%TO.C,IC1*%
X108050000Y-122280000D02*
X106525000Y-122280000D01*
D18*
%TO.C,D2*%
X146450000Y-138250000D02*
X143900000Y-138250000D01*
X146450000Y-136550000D02*
X143900000Y-136550000D01*
X146450000Y-138250000D02*
X146450000Y-136550000D01*
D17*
%TO.C,U1*%
X105900000Y-139200000D02*
X102700000Y-139200000D01*
X102700000Y-134300000D02*
X105900000Y-134300000D01*
X105900000Y-134300000D02*
X105900000Y-139200000D01*
X102700000Y-139200000D02*
X102700000Y-134300000D01*
X107775000Y-139355000D02*
X106250000Y-139355000D01*
D19*
%TO.C,J5*%
X132325000Y-136475000D02*
X132325000Y-138035000D01*
X132325000Y-133475000D02*
X132325000Y-132975000D01*
D17*
X137325000Y-138875000D02*
X137325000Y-138875000D01*
D19*
X139525000Y-136475000D02*
X139525000Y-138035000D01*
X132325000Y-138035000D02*
X132425000Y-138035000D01*
X139525000Y-132975000D02*
X139525000Y-133475000D01*
X132325000Y-138035000D02*
X132325000Y-138035000D01*
X139525000Y-138035000D02*
X139425000Y-138035000D01*
D17*
X137125000Y-138875000D02*
X137125000Y-138875000D01*
D19*
X132325000Y-132975000D02*
X139525000Y-132975000D01*
D17*
X137325000Y-138875000D02*
G75*
G03*
X137125000Y-138875000I-100000J0D01*
G01*
X137125000Y-138875000D02*
G75*
G03*
X137325000Y-138875000I100000J0D01*
G01*
D20*
%TO.C,U4*%
X136900000Y-120775000D02*
X136900000Y-117225000D01*
X146900000Y-120775000D02*
X146900000Y-117225000D01*
D17*
X136245000Y-121750000D02*
G75*
G03*
X136245000Y-121750000I-100000J0D01*
G01*
%TO.C,R7*%
X148675000Y-139063000D02*
X148675000Y-137987000D01*
%TO.C,R19*%
X176462000Y-117900000D02*
X177538000Y-117900000D01*
D18*
%TO.C,D7*%
X155200000Y-115340000D02*
X152515000Y-115340000D01*
X152515000Y-117260000D02*
X155200000Y-117260000D01*
X152515000Y-115340000D02*
X152515000Y-117260000D01*
D17*
%TO.C,Q3*%
X114075000Y-137725000D02*
X114075000Y-137125000D01*
X117050000Y-135575000D02*
X117050000Y-136775000D01*
X117025000Y-137125000D02*
X117025000Y-137725000D01*
X117025000Y-137725000D02*
X114075000Y-137725000D01*
X114075000Y-137125000D02*
X117025000Y-137125000D01*
D18*
%TO.C,D6*%
X155300000Y-117940000D02*
X152615000Y-117940000D01*
X152615000Y-117940000D02*
X152615000Y-119860000D01*
X152615000Y-119860000D02*
X155300000Y-119860000D01*
D17*
%TO.C,R1*%
X118025000Y-121112000D02*
X118025000Y-122188000D01*
D18*
%TO.C,C10*%
X180160000Y-93307836D02*
X180160000Y-93092164D01*
X179440000Y-93307836D02*
X179440000Y-93092164D01*
%TO.C,TP12*%
X125900000Y-128500000D02*
G75*
G03*
X125900000Y-128500000I-1200000J0D01*
G01*
D17*
%TO.C,Y1*%
X160000000Y-121400000D02*
X160000000Y-121400000D01*
X160000000Y-121600000D02*
X160000000Y-121600000D01*
X160000000Y-121400000D02*
G75*
G03*
X160000000Y-121600000I0J-100000D01*
G01*
X160000000Y-121600000D02*
G75*
G03*
X160000000Y-121400000I0J100000D01*
G01*
%TO.C,Q2*%
X101875000Y-131300000D02*
X101875000Y-131900000D01*
X101875000Y-131900000D02*
X98925000Y-131900000D01*
X98925000Y-131300000D02*
X101875000Y-131300000D01*
X98900000Y-133450000D02*
X98900000Y-132250000D01*
X98925000Y-131900000D02*
X98925000Y-131300000D01*
%TO.C,R6*%
X148675000Y-135537000D02*
X148675000Y-136613000D01*
D20*
%TO.C,IC3*%
X169350000Y-116850000D02*
X173250000Y-116850000D01*
X169350000Y-121750000D02*
X173250000Y-121750000D01*
X167863500Y-116800000D02*
G75*
G03*
X167863500Y-116800000I-63500J0D01*
G01*
D17*
%TO.C,R20*%
X149800000Y-118162000D02*
X149800000Y-119238000D01*
D18*
%TO.C,D8*%
X135860000Y-118385000D02*
X135860000Y-115700000D01*
X133940000Y-118385000D02*
X135860000Y-118385000D01*
X133940000Y-115700000D02*
X133940000Y-118385000D01*
D17*
%TO.C,R2*%
X141612000Y-134200000D02*
X142688000Y-134200000D01*
D18*
%TO.C,TP7*%
X110925000Y-134175000D02*
G75*
G03*
X110925000Y-134175000I-1200000J0D01*
G01*
D17*
%TO.C,J6*%
X111350000Y-74334500D02*
X109062000Y-74334500D01*
X104100000Y-74334500D02*
X104100000Y-73573500D01*
X109525000Y-70634500D02*
X105925000Y-70634500D01*
X104100000Y-74334500D02*
X106388000Y-74334500D01*
X111350000Y-74334500D02*
X111350000Y-73573500D01*
X108431000Y-75620500D02*
G75*
G03*
X108431000Y-75620500I-45000J0D01*
G01*
%TO.C,R17*%
X140100000Y-77250000D02*
X139500000Y-77250000D01*
%TO.C,R10*%
X95012000Y-129375000D02*
X96088000Y-129375000D01*
D18*
%TO.C,TP13*%
X129400000Y-128400000D02*
G75*
G03*
X129400000Y-128400000I-1200000J0D01*
G01*
D17*
%TO.C,R22*%
X149700000Y-121638000D02*
X149700000Y-120562000D01*
%TO.C,R15*%
X104200000Y-133363000D02*
X104200000Y-132287000D01*
%TO.C,R16*%
X107375000Y-77375000D02*
X106775000Y-77375000D01*
D18*
%TO.C,TP4*%
X143800000Y-129450000D02*
G75*
G03*
X143800000Y-129450000I-1200000J0D01*
G01*
%TO.C,TP8*%
X180200000Y-136750000D02*
G75*
G03*
X180200000Y-136750000I-1200000J0D01*
G01*
D17*
%TO.C,D4*%
X112875000Y-120800000D02*
X110575000Y-120800000D01*
X110575000Y-122450000D02*
X112875000Y-122450000D01*
X110575000Y-120800000D02*
X110575000Y-122450000D01*
D18*
%TO.C,TP11*%
X187100000Y-120700000D02*
G75*
G03*
X187100000Y-120700000I-1200000J0D01*
G01*
D17*
%TO.C,R13*%
X118550000Y-130975000D02*
X118550000Y-130375000D01*
%TO.C,R21*%
X149800000Y-115762000D02*
X149800000Y-116838000D01*
D18*
%TO.C,U2*%
X112650000Y-75540000D02*
X114600000Y-75540000D01*
X112650000Y-75540000D02*
X109200000Y-75540000D01*
X112650000Y-80660000D02*
X114600000Y-80660000D01*
X112650000Y-80660000D02*
X110700000Y-80660000D01*
%TO.C,TP1*%
X146100000Y-133275000D02*
G75*
G03*
X146100000Y-133275000I-1200000J0D01*
G01*
D17*
%TO.C,Q1*%
X149200000Y-131475000D02*
X149200000Y-134425000D01*
X149200000Y-134425000D02*
X148600000Y-134425000D01*
X150750000Y-134450000D02*
X149550000Y-134450000D01*
X148600000Y-134425000D02*
X148600000Y-131475000D01*
X148600000Y-131475000D02*
X149200000Y-131475000D01*
D18*
%TO.C,TP5*%
X154400000Y-132050000D02*
G75*
G03*
X154400000Y-132050000I-1200000J0D01*
G01*
%TO.C,D5*%
X114750000Y-130175000D02*
X114750000Y-132725000D01*
X116450000Y-130175000D02*
X116450000Y-132725000D01*
X116450000Y-130175000D02*
X114750000Y-130175000D01*
D14*
%TO.C,U3*%
X118533000Y-77688000D02*
X118533000Y-78831000D01*
X117517000Y-77688000D02*
X118533000Y-77688000D01*
X118088000Y-78259000D02*
X117961000Y-78259000D01*
X118533000Y-78831000D02*
X117517000Y-78831000D01*
X117961000Y-78132000D02*
X118088000Y-78132000D01*
X119295000Y-76850000D02*
X119295000Y-80050000D01*
X117517000Y-78831000D02*
X117517000Y-77688000D01*
X118088000Y-78132000D02*
X118088000Y-78259000D01*
X116755000Y-76850000D02*
X116755000Y-80050000D01*
X117961000Y-78259000D02*
X117961000Y-78132000D01*
X118839000Y-81117000D02*
G75*
G03*
X118839000Y-81117000I-179000J0D01*
G01*
D17*
%TO.C,R12*%
X113063000Y-135225000D02*
X111987000Y-135225000D01*
%TO.C,R18*%
X179362000Y-118700000D02*
X180438000Y-118700000D01*
%TO.C,R4*%
X139250000Y-131788000D02*
X139250000Y-130712000D01*
D18*
%TO.C,TP3*%
X130100000Y-133700000D02*
G75*
G03*
X130100000Y-133700000I-1200000J0D01*
G01*
%TO.C,TP10*%
X187000000Y-117300000D02*
G75*
G03*
X187000000Y-117300000I-1200000J0D01*
G01*
D17*
%TO.C,J7*%
X113175000Y-74284500D02*
X113175000Y-73523500D01*
X120425000Y-74284500D02*
X120425000Y-73523500D01*
X113175000Y-74284500D02*
X115463000Y-74284500D01*
X118600000Y-70584500D02*
X115000000Y-70584500D01*
X120425000Y-74284500D02*
X118137000Y-74284500D01*
X117506000Y-75570500D02*
G75*
G03*
X117506000Y-75570500I-45000J0D01*
G01*
%TO.C,R11*%
X109750000Y-120950000D02*
X109150000Y-120950000D01*
%TO.C,J8*%
X128100000Y-74384500D02*
X130388000Y-74384500D01*
X133525000Y-70684500D02*
X129925000Y-70684500D01*
X128100000Y-74384500D02*
X128100000Y-73623500D01*
X135350000Y-74384500D02*
X135350000Y-73623500D01*
X135350000Y-74384500D02*
X133062000Y-74384500D01*
X132431000Y-75670500D02*
G75*
G03*
X132431000Y-75670500I-45000J0D01*
G01*
%TO.C,R14*%
X118400000Y-128087000D02*
X118400000Y-129163000D01*
D18*
%TO.C,C11*%
X182460000Y-93387836D02*
X182460000Y-93172164D01*
X181740000Y-93387836D02*
X181740000Y-93172164D01*
D17*
%TO.C,R3*%
X129000000Y-137262000D02*
X129000000Y-138338000D01*
%TO.C,IC2*%
X124377000Y-138502000D02*
X120873000Y-138502000D01*
X118600000Y-132135000D02*
X120050000Y-132135000D01*
X124377000Y-131998000D02*
X124377000Y-138502000D01*
X120873000Y-131998000D02*
X124377000Y-131998000D01*
X120873000Y-138502000D02*
X120873000Y-131998000D01*
%TO.C,R9*%
X99100000Y-121000000D02*
X99700000Y-121000000D01*
%TO.C,J9*%
X136800000Y-74434500D02*
X139088000Y-74434500D01*
X142225000Y-70734500D02*
X138625000Y-70734500D01*
X136800000Y-74434500D02*
X136800000Y-73673500D01*
X144050000Y-74434500D02*
X144050000Y-73673500D01*
X144050000Y-74434500D02*
X141762000Y-74434500D01*
X141131000Y-75720500D02*
G75*
G03*
X141131000Y-75720500I-45000J0D01*
G01*
D18*
%TO.C,TP6*%
X105350000Y-129100000D02*
G75*
G03*
X105350000Y-129100000I-1200000J0D01*
G01*
%TD*%
M02*
