%TF.GenerationSoftware,KiCad,Pcbnew,(6.0.2)*%
%TF.CreationDate,2022-03-20T21:01:56+02:00*%
%TF.ProjectId,main,6d61696e-2e6b-4696-9361-645f70636258,rev?*%
%TF.SameCoordinates,Original*%
%TF.FileFunction,Legend,Bot*%
%TF.FilePolarity,Positive*%
%FSLAX46Y46*%
G04 Gerber Fmt 4.6, Leading zero omitted, Abs format (unit mm)*
G04 Created by KiCad (PCBNEW (6.0.2)) date 2022-03-20 21:01:56*
%MOMM*%
%LPD*%
G01*
G04 APERTURE LIST*
%TA.AperFunction,Profile*%
%ADD10C,0.100000*%
%TD*%
%ADD11C,0.150000*%
%ADD12C,0.120000*%
G04 APERTURE END LIST*
D10*
X189700000Y-76480000D02*
X189700000Y-137400000D01*
X100060000Y-69849999D02*
G75*
G03*
X89700000Y-79080000I93771J-10534423D01*
G01*
X89700000Y-134650000D02*
X89700000Y-79080000D01*
X187390000Y-139830000D02*
G75*
G03*
X189700000Y-137400000I17847J2295998D01*
G01*
X100060000Y-69850000D02*
X183790000Y-69850000D01*
X189700000Y-76480000D02*
G75*
G03*
X183790000Y-69850000I-6555369J105621D01*
G01*
X187390000Y-139830000D02*
X94910000Y-139830000D01*
X89700000Y-134650000D02*
G75*
G03*
X94910000Y-139830000I4932314J-249207D01*
G01*
D11*
%TO.C,J2*%
X181622380Y-83766666D02*
X182336666Y-83766666D01*
X182479523Y-83719047D01*
X182574761Y-83623809D01*
X182622380Y-83480952D01*
X182622380Y-83385714D01*
X181717619Y-84195238D02*
X181670000Y-84242857D01*
X181622380Y-84338095D01*
X181622380Y-84576190D01*
X181670000Y-84671428D01*
X181717619Y-84719047D01*
X181812857Y-84766666D01*
X181908095Y-84766666D01*
X182050952Y-84719047D01*
X182622380Y-84147619D01*
X182622380Y-84766666D01*
%TO.C,J3*%
X181662380Y-124366666D02*
X182376666Y-124366666D01*
X182519523Y-124319047D01*
X182614761Y-124223809D01*
X182662380Y-124080952D01*
X182662380Y-123985714D01*
X181662380Y-124747619D02*
X181662380Y-125366666D01*
X182043333Y-125033333D01*
X182043333Y-125176190D01*
X182090952Y-125271428D01*
X182138571Y-125319047D01*
X182233809Y-125366666D01*
X182471904Y-125366666D01*
X182567142Y-125319047D01*
X182614761Y-125271428D01*
X182662380Y-125176190D01*
X182662380Y-124890476D01*
X182614761Y-124795238D01*
X182567142Y-124747619D01*
D12*
%TO.C,J2*%
X180730000Y-82770000D02*
X179400000Y-82770000D01*
X178130000Y-85430000D02*
X96790000Y-85430000D01*
X178130000Y-85430000D02*
X178130000Y-82770000D01*
X96790000Y-85430000D02*
X96790000Y-82770000D01*
X180730000Y-84100000D02*
X180730000Y-82770000D01*
X178130000Y-82770000D02*
X96790000Y-82770000D01*
%TO.C,J3*%
X178170000Y-126030000D02*
X178170000Y-123370000D01*
X180770000Y-123370000D02*
X179440000Y-123370000D01*
X96830000Y-126030000D02*
X96830000Y-123370000D01*
X178170000Y-126030000D02*
X96830000Y-126030000D01*
X180770000Y-124700000D02*
X180770000Y-123370000D01*
X178170000Y-123370000D02*
X96830000Y-123370000D01*
%TD*%
M02*
