M48
; DRILL file {KiCad (6.0.2)} date Fri Apr  8 21:48:17 2022
; FORMAT={-:-/ absolute / inch / decimal}
; #@! TF.CreationDate,2022-04-08T21:48:17+02:00
; #@! TF.GenerationSoftware,Kicad,Pcbnew,(6.0.2)
; #@! TF.FileFunction,Plated,1,2,PTH
FMAT,2
INCH
; #@! TA.AperFunction,Plated,PTH,ViaDrill
T1C0.0157
; #@! TA.AperFunction,Plated,PTH,ComponentDrill
T2C0.0276
; #@! TA.AperFunction,Plated,PTH,ComponentDrill
T3C0.0394
; #@! TA.AperFunction,Plated,PTH,ComponentDrill
T4C0.0512
%
G90
G05
T1
X3.5894Y-4.6358
X3.6327Y-4.8736
X3.6706Y-5.2046
X3.8571Y-5.4386
X3.9496Y-5.2055
X4.0343Y-5.3409
X4.1271Y-5.1362
X4.1937Y-5.2429
X4.2143Y-4.7328
X4.2579Y-5.0717
X4.2622Y-4.7855
X4.2744Y-5.1642
X4.2882Y-4.6043
X4.3417Y-4.7858
X4.3476Y-5.0965
X4.3488Y-5.2114
X4.3605Y-4.6807
X4.4169Y-4.8209
X4.4598Y-5.2126
X4.497Y-5.3547
X4.5283Y-5.0799
X4.5508Y-5.2508
X4.7028Y-5.2193
X4.7075Y-5.1646
X4.7543Y-5.461
X4.8134Y-5.0476
X4.8165Y-4.7909
X4.8772Y-5.3374
X4.8819Y-3.6705
X4.9638Y-5.2654
X4.9831Y-4.7008
X5.0163Y-3.0029
X5.0365Y-3.0634
X5.1091Y-3.5004
X5.1134Y-3.0321
X5.1169Y-3.6008
X5.1177Y-2.975
X5.1236Y-3.5378
X5.175Y-3.6468
X5.178Y-4.789
X5.1889Y-2.9635
X5.2118Y-4.8204
X5.2401Y-5.1977
X5.252Y-2.9323
X5.2764Y-3.0693
X5.3504Y-5.0441
X5.4083Y-3.039
X5.4626Y-4.8098
X5.5618Y-3.1744
X5.5619Y-5.0272
X5.5673Y-5.2551
X5.5846Y-5.1638
X5.7039Y-5.0941
X5.7762Y-5.276
X5.7764Y-5.0272
X5.8138Y-4.8362
X5.8713Y-2.9642
X5.8827Y-4.6315
X5.8846Y-5.1941
X5.9539Y-5.1626
X5.9783Y-2.9323
X6.2024Y-5.1645
X7.2756Y-3.5358
T2
X4.4033Y-5.2913
X4.5943Y-5.2913
T3
X3.863Y-3.311
X3.8646Y-4.9094
X3.963Y-3.311
X3.9646Y-4.9094
X4.063Y-3.311
X4.0646Y-4.9094
X4.163Y-3.311
X4.1646Y-4.9094
X4.263Y-3.311
X4.2646Y-4.9094
X4.363Y-3.311
X4.3646Y-4.9094
X4.463Y-3.311
X4.4646Y-4.9094
X4.563Y-3.311
X4.5646Y-4.9094
X4.663Y-3.311
X4.6646Y-4.9094
X4.763Y-3.311
X4.7646Y-4.9094
X4.863Y-3.311
X4.8646Y-4.9094
X4.963Y-3.311
X4.9646Y-4.9094
X5.063Y-3.311
X5.0646Y-4.9094
X5.163Y-3.311
X5.1646Y-4.9094
X5.263Y-3.311
X5.2646Y-4.9094
X5.363Y-3.311
X5.3646Y-4.9094
X5.463Y-3.311
X5.4646Y-4.9094
X5.563Y-3.311
X5.5646Y-4.9094
X5.663Y-3.311
X5.6646Y-4.9094
X5.763Y-3.311
X5.7646Y-4.9094
X5.863Y-3.311
X5.8646Y-4.9094
X5.963Y-3.311
X5.9646Y-4.9094
X6.063Y-3.311
X6.0646Y-4.9094
X6.163Y-3.311
X6.1646Y-4.9094
X6.263Y-3.311
X6.2646Y-4.9094
X6.363Y-3.311
X6.3646Y-4.9094
X6.463Y-3.311
X6.4646Y-4.9094
X6.563Y-3.311
X6.5646Y-4.9094
X6.663Y-3.311
X6.6646Y-4.9094
X6.763Y-3.311
X6.7646Y-4.9094
X6.863Y-3.311
X6.8646Y-4.9094
X6.963Y-3.311
X6.9646Y-4.9094
X7.063Y-3.311
X7.0646Y-4.9094
T4
X4.3571Y-5.3965
X4.6406Y-5.3965
T0
M30
